%FSTAX23Y23*%
%MOIN*%
%SFA1B1*%

%IPPOS*%
%ADD10R,0.057090X0.061020*%
%ADD11C,0.060000*%
%ADD12C,0.024000*%
%ADD13R,0.066930X0.066930*%
%ADD14C,0.066930*%
%ADD15C,0.070000*%
%ADD16O,0.112000X0.056000*%
%ADD17C,0.062990*%
%ADD18R,0.062990X0.062990*%
%ADD19C,0.059050*%
%ADD20R,0.059050X0.059050*%
%ADD21C,0.082680*%
%ADD22R,0.082680X0.082680*%
%ADD23R,0.062990X0.062990*%
%ADD24C,0.030000*%
%LNqudruped_nano-1*%
%LPD*%
G36*
X04476Y0308D02*
X04447Y03052D01*
X04441Y03043*
X04345*
X0434Y03042*
X04315*
X04306Y03041*
X04298Y03038*
X04291Y03033*
X04289Y03029*
X04284Y03028*
X04279Y03032*
X04269Y03038*
X04257Y03041*
X04245Y03042*
X04232Y03041*
X0422Y03038*
X0421Y03032*
X042Y03024*
X04197Y0302*
X04192*
X04189Y03024*
X04179Y03032*
X04172Y03036*
X04171Y03042*
X04213Y03084*
X0447*
X04473Y03085*
X04476Y0308*
G37*
G36*
X04298Y02921D02*
X04306Y02918D01*
X04315Y02917*
X0434*
X04345Y02916*
X04416*
Y0278*
X04417Y02767*
X04421Y02755*
X04427Y02744*
X04435Y02735*
X04451Y02718*
Y02391*
X04402Y02341*
X04397Y02344*
X04398Y02347*
X04399Y0236*
X04398Y02372*
X04394Y02384*
X04388Y02396*
X0438Y02405*
X04371Y02413*
X04359Y02419*
X04359Y0242*
X04358Y02425*
X04364Y0243*
X04371Y02439*
X04375Y02449*
X04376Y02455*
X04335*
X04293*
X04294Y02449*
X04298Y02439*
X04305Y0243*
X04311Y02425*
X0431Y0242*
X0431Y02419*
X04298Y02413*
X04289Y02405*
X04288Y02405*
X04233*
X04232Y02407*
X04222Y02415*
X04213Y0242*
X04212Y02426*
X04216Y02429*
X04222Y02438*
X04227Y02448*
X04228Y02455*
X04185*
Y02465*
X04228*
X04227Y02471*
X04222Y02481*
X04216Y02491*
X04212Y02493*
X04213Y02499*
X04222Y02504*
X04232Y02512*
X04233Y02514*
X04288*
X04289Y02514*
X04298Y02506*
X0431Y025*
X0431Y02499*
X04311Y02494*
X04305Y02489*
X04298Y0248*
X04294Y0247*
X04293Y02465*
X04335*
X04376*
X04375Y0247*
X04371Y0248*
X04364Y02489*
X04358Y02494*
X04359Y02499*
X04359Y025*
X04371Y02506*
X0438Y02514*
X04388Y02523*
X04394Y02535*
X04398Y02547*
X04399Y0256*
X04398Y02572*
X04394Y02584*
X04388Y02596*
X0438Y02605*
X04371Y02613*
X04359Y02619*
X04347Y02623*
X04335Y02624*
X04322Y02623*
X0431Y02619*
X04298Y02613*
X04289Y02605*
X04288Y02605*
X04247*
X04245Y02609*
X04246Y02612*
X04251Y02619*
X04252Y02623*
X04253Y02623*
X04253Y02624*
X04254Y02628*
X04257Y02636*
X04258Y02645*
Y02649*
X04258Y0265*
X04258Y0265*
Y02654*
X04257Y02663*
X04254Y02671*
X04253Y02675*
X04253Y02676*
X04252Y02676*
X04251Y0268*
X04246Y02687*
X04241Y02695*
X04238Y02698*
X04238Y02698*
X04238Y02698*
X04235Y02701*
X04227Y02706*
X0422Y02711*
X04216Y02712*
X04216Y02713*
X04215Y02713*
X04211Y02714*
X04203Y02717*
X04194Y02718*
X04194Y02718*
X04192Y02723*
X04277Y02807*
X04284Y02817*
X04288Y02828*
X0429Y0284*
Y02921*
X04295Y02924*
X04298Y02921*
G37*
G36*
X0472Y03233D02*
X04725Y03234D01*
X04735Y03238*
X04744Y03245*
X04745Y03246*
X0475Y03244*
Y03243*
X04751Y03234*
X04754Y03226*
X04759Y03219*
X04766Y03214*
X04769Y03213*
Y03208*
X04711Y0315*
X04565*
X04561Y03149*
X04558Y03154*
X04614Y0321*
X04615Y0321*
X04627Y03211*
X04639Y03215*
X04651Y03221*
X0466Y03229*
X04668Y03238*
X04674Y0325*
X04675Y0325*
X0468Y03251*
X04685Y03245*
X04694Y03238*
X04704Y03234*
X0471Y03233*
Y03275*
X0472*
Y03233*
G37*
G36*
X05391Y03399D02*
X05387Y03397D01*
X05379Y03404*
X0537Y03412*
X05359Y03418*
X05347Y03422*
X05335Y03423*
X05331*
X05331Y03428*
X05331Y03428*
X05342Y03434*
X05351Y03441*
X05358Y0345*
X05364Y03461*
X05368Y03473*
X05369Y03485*
X05368Y03496*
X05364Y03508*
X05358Y03519*
X05351Y03528*
X05342Y03535*
X05331Y03541*
X05319Y03545*
X05308Y03546*
X05252*
X0524Y03545*
X05228Y03541*
X05217Y03535*
X05208Y03528*
X05201Y03519*
X05195Y03508*
X05191Y03496*
X0519Y03485*
X05191Y03473*
X05195Y03461*
X05201Y0345*
X05208Y03441*
X05217Y03434*
X05228Y03428*
X0524Y03424*
Y0342*
X05228Y03416*
X05217Y0341*
X05208Y03403*
X05201Y03394*
X05195Y03383*
X05191Y03371*
X0519Y0336*
X05191Y03348*
X05195Y03336*
X05201Y03325*
X05208Y03316*
X05217Y03309*
X05228Y03303*
X0524Y03299*
Y03295*
X05228Y03291*
X05217Y03285*
X05208Y03278*
X05201Y03269*
X05195Y03258*
X05191Y03246*
X0519Y03235*
X05045Y03089*
X05037Y0308*
X05031Y03069*
X05027Y03057*
X05026Y03045*
Y02639*
X0502Y02628*
X05016Y02614*
X05015Y026*
X05016Y02585*
X0502Y02571*
X05027Y02558*
X05037Y02547*
X05048Y02537*
X05061Y0253*
X05075Y02526*
X0509Y02525*
X05104Y02526*
X05118Y0253*
X05131Y02537*
X05142Y02547*
X05152Y02558*
X05159Y02571*
X05163Y02585*
X05164Y026*
X05163Y02614*
X05159Y02628*
X05153Y02639*
Y03018*
X05308Y03173*
X05316Y03174*
X05321Y0317*
Y02306*
X05194Y02179*
X05186Y0217*
X05186Y02169*
X05181Y02168*
X0518Y02169*
X0517Y02173*
X05165Y02174*
Y02135*
Y02095*
X0517Y02096*
X0518Y021*
X05181Y02101*
X05186Y021*
X05186Y02099*
X05194Y0209*
X05231Y02053*
Y01837*
X05229Y01832*
X05228Y01825*
X05224Y01823*
X05223Y01823*
X05216Y01827*
X05206Y01832*
X052Y01833*
Y0179*
Y01746*
X05206Y01747*
X05216Y01752*
X05223Y01756*
X05224Y01756*
X05228Y01754*
X05229Y01747*
X05231Y01742*
Y01527*
X05229Y01522*
X05228Y01515*
X05224Y01513*
X05223Y01513*
X05216Y01517*
X05206Y01522*
X052Y01523*
Y0148*
Y01436*
X05206Y01437*
X05216Y01442*
X05223Y01446*
X05224Y01446*
X05228Y01444*
X05229Y01437*
X05231Y01432*
Y01227*
X05229Y01222*
X05228Y01215*
X05224Y01213*
X05223Y01213*
X05216Y01217*
X05206Y01222*
X052Y01223*
Y0118*
X0519*
Y01223*
X05183Y01222*
X05173Y01217*
X05164Y01211*
X05161Y01207*
X05155Y01208*
X0515Y01217*
X05142Y01227*
X05132Y01235*
X0512Y01241*
X05108Y01245*
X05095Y01246*
X05081Y01245*
X05069Y01241*
X05057Y01235*
X05047Y01227*
X05039Y01217*
X05033Y01205*
X05029Y01193*
X05028Y0118*
X05029Y01166*
X05033Y01154*
X05039Y01142*
X05047Y01133*
X05046Y01129*
X05046Y01128*
X04901*
X04841Y01187*
Y01198*
X0484Y01207*
X04838Y01212*
Y01432*
X0484Y01437*
X04841Y01446*
Y01513*
X0484Y01522*
X04837Y0153*
X04833Y01535*
Y01739*
X04837Y01744*
X0484Y01752*
X04841Y01761*
Y01828*
X0484Y01837*
X04837Y01845*
X04832Y01852*
X04825Y01857*
X04817Y0186*
X04808Y01861*
X04741*
X04732Y0186*
X04724Y01857*
X04718Y01852*
X04712Y01845*
X04709Y01837*
X04708Y0183*
X04704Y01828*
X04703Y01828*
X04696Y01832*
X04686Y01837*
X0468Y01838*
Y01795*
Y01751*
X04686Y01752*
X04696Y01757*
X04701Y0176*
X04706Y01758*
Y01516*
X04701Y01514*
X04696Y01517*
X04686Y01522*
X0468Y01523*
Y0148*
Y01436*
X04686Y01437*
X04696Y01442*
X04703Y01446*
X04704Y01446*
X04708Y01444*
X04709Y01437*
X04711Y01432*
Y01212*
X04709Y01207*
X04708Y012*
X04704Y01198*
X04703Y01198*
X04696Y01202*
X04686Y01207*
X0468Y01208*
Y01165*
Y01121*
X04686Y01122*
X04696Y01127*
X04703Y01131*
X04704Y01131*
X04708Y01129*
X04709Y01122*
X04712Y01114*
X04718Y01108*
X04724Y01102*
X04732Y01099*
X04741Y01098*
X04752*
X0483Y0102*
X04839Y01012*
X0485Y01006*
X04862Y01002*
X04875Y01001*
X05245*
X05257Y01002*
X05269Y01006*
X0528Y01012*
X05289Y0102*
X05339Y0107*
X05347Y01079*
X05353Y0109*
X05357Y01102*
X05358Y01115*
Y01132*
X0536Y01137*
X05361Y01146*
Y01213*
X0536Y01222*
X05358Y01227*
Y01432*
X0536Y01437*
X05361Y01446*
Y01513*
X0536Y01522*
X05358Y01527*
Y01742*
X0536Y01747*
X05361Y01756*
Y01823*
X0536Y01832*
X05358Y01837*
Y02079*
X05357Y02091*
X05353Y02103*
X05347Y02114*
X05339Y02124*
X05328Y02135*
X05387Y02193*
X05391Y02191*
Y00973*
X03869*
X03867Y00977*
X04003Y01114*
X04131*
X04134Y01109*
X04133Y01107*
X04128Y011*
X04127Y01096*
X04126Y01096*
X04126Y01095*
X04125Y01091*
X04122Y01083*
X04121Y01074*
Y0107*
X04121Y0107*
X04121Y01069*
Y01065*
X04122Y01056*
X04125Y01048*
X04126Y01044*
X04126Y01043*
X04127Y01043*
X04128Y01039*
X04133Y01032*
X04138Y01024*
X04141Y01021*
X04141Y01021*
X04141Y01021*
X04144Y01018*
X04152Y01013*
X04159Y01008*
X04163Y01007*
X04163Y01006*
X04164Y01006*
X04168Y01005*
X04176Y01002*
X04185Y01001*
X04187*
X0419Y01001*
X04192Y01001*
X04194*
X04203Y01002*
X04211Y01005*
X04215Y01006*
X04216Y01006*
X04216Y01007*
X0422Y01008*
X04227Y01013*
X04235Y01018*
X04238Y01021*
X04238Y01021*
X04238Y01021*
X04241Y01024*
X04246Y01032*
X04251Y01039*
X04252Y01043*
X04253Y01043*
X04253Y01044*
X04254Y01048*
X04257Y01056*
X04258Y01065*
Y01069*
X04258Y0107*
X04258Y0107*
Y01074*
X04257Y01083*
X04254Y01091*
X04253Y01095*
X04253Y01096*
X04252Y01096*
X04251Y011*
X04246Y01107*
X04245Y0111*
X04247Y01114*
X04273*
X04274Y01111*
X04279Y01104*
X04286Y01099*
X04294Y01096*
X04303Y01095*
X04366*
X04375Y01096*
X04383Y01099*
X0439Y01104*
X04395Y01111*
X04398Y01119*
X04399Y01128*
Y01191*
X04398Y012*
X04395Y01208*
X0439Y01215*
X04387Y01216*
X04387Y01221*
X04388Y01223*
X04394Y01235*
X04398Y01247*
X04399Y0126*
X04398Y01272*
X04394Y01284*
X04388Y01296*
X0438Y01305*
X04378Y01307*
Y01312*
X0438Y01314*
X04388Y01323*
X04394Y01335*
X04398Y01347*
X04399Y0136*
X04398Y01372*
X04394Y01384*
X04388Y01396*
X0438Y01405*
X04378Y01407*
Y01412*
X0438Y01414*
X04388Y01424*
X04394Y01435*
X04398Y01447*
X04399Y0146*
X04398Y01472*
X04394Y01484*
X04388Y01496*
X0438Y01505*
X04378Y01507*
Y01512*
X0438Y01514*
X04388Y01524*
X04394Y01535*
X04398Y01547*
X04399Y0156*
X04398Y01572*
X04394Y01584*
X04388Y01596*
X0438Y01605*
X04378Y01607*
Y01612*
X0438Y01614*
X04388Y01623*
X04394Y01635*
X04398Y01647*
X04399Y0166*
X04398Y01672*
X04394Y01684*
X04388Y01696*
X0438Y01705*
X04378Y01707*
Y01712*
X0438Y01714*
X04388Y01723*
X04394Y01735*
X04398Y01747*
X04399Y0176*
X04398Y01772*
X04394Y01784*
X04388Y01796*
X0438Y01805*
X04378Y01807*
Y01812*
X0438Y01814*
X04388Y01823*
X04394Y01835*
X04398Y01847*
X04399Y0186*
X04398Y01872*
X04394Y01884*
X04388Y01896*
X0438Y01905*
X04378Y01907*
Y01912*
X0438Y01914*
X04388Y01924*
X04394Y01935*
X04398Y01947*
X04399Y0196*
X04398Y01972*
X04394Y01984*
X04388Y01996*
X0438Y02005*
X04378Y02007*
Y02012*
X0438Y02014*
X04388Y02023*
X04394Y02035*
X04398Y02047*
X04399Y0206*
X04398Y02072*
X04394Y02084*
X04388Y02096*
X0438Y02105*
X04378Y02107*
Y02112*
X0438Y02114*
X04388Y02123*
X04394Y02135*
X04398Y02147*
X04399Y0216*
X04398Y02172*
X04394Y02184*
X04391Y02191*
X04394Y02196*
X0441*
X04422Y02197*
X04434Y02201*
X04445Y02207*
X04454Y02215*
X04559Y0232*
X04567Y02329*
X04573Y0234*
X04577Y02352*
X04578Y02365*
Y02595*
X04582Y02597*
X04896Y02283*
Y02175*
X04892Y02173*
X04891Y02173*
X04886Y02174*
Y02135*
Y02095*
X04891Y02096*
X04901Y021*
X04902Y02101*
X04907Y021*
X04907Y02099*
X04915Y0209*
X04924Y02082*
X04935Y02076*
X04947Y02072*
X0496Y02071*
X04972Y02072*
X04984Y02076*
X04995Y02082*
X05004Y0209*
X05012Y02099*
X05018Y0211*
X05022Y02122*
X05023Y02135*
Y0231*
X05022Y02322*
X05018Y02334*
X05012Y02345*
X05004Y02354*
X04559Y02799*
X0455Y02807*
X04543Y02811*
Y02934*
X04548Y02936*
X04551Y02931*
X0456Y02925*
X04569Y02921*
X04575Y0292*
Y0296*
Y02999*
X04569Y02998*
X0456Y02994*
X04551Y02988*
X04547Y02982*
X04542Y02984*
Y02989*
X04541Y02998*
X04538Y03006*
X04534Y0301*
X04583Y03059*
X0473*
X04741Y03061*
X04752Y03065*
X04762Y03072*
X04852Y03162*
X04859Y03172*
X04863Y03183*
X04865Y03195*
X04863Y03206*
X0486Y03213*
X04863Y03214*
X0487Y03219*
X04875Y03226*
X04878Y03234*
X04879Y03243*
Y03306*
X04878Y03315*
X04875Y03323*
X0487Y0333*
X04863Y03335*
X04855Y03338*
X04846Y03339*
X04814*
X04687Y03467*
X04677Y03474*
X04666Y03478*
X04655Y0348*
X03795*
X03783Y03478*
X03772Y03474*
X03762Y03467*
X03708Y03412*
X03705*
X03696Y03411*
X03688Y03408*
X03681Y03403*
X03676Y03396*
X03676Y03395*
X0352*
X03508Y03393*
X03497Y03389*
X03487Y03382*
X03307Y03202*
X033Y03192*
X03296Y03181*
X03294Y0317*
Y02923*
X03271Y029*
X03256*
X03255Y029*
X03246Y02908*
X03234Y02914*
X03234Y02915*
X03233Y0292*
X03239Y02925*
X03246Y02934*
X0325Y02944*
X03251Y0295*
X0321*
Y0296*
X03251*
X0325Y02965*
X03246Y02975*
X03239Y02984*
X03233Y02989*
X03234Y02994*
X03234Y02995*
X03246Y03001*
X03255Y03009*
X03263Y03018*
X03269Y0303*
X03273Y03042*
X03274Y03055*
X03273Y03067*
X03269Y03079*
X03263Y03091*
X03255Y031*
X03253Y03102*
Y03107*
X03255Y03109*
X03263Y03118*
X03269Y0313*
X03273Y03142*
X03274Y03155*
X03273Y03167*
X03269Y03179*
X03263Y03191*
X03255Y032*
X03253Y03202*
Y03207*
X03255Y03209*
X03263Y03218*
X03269Y0323*
X03273Y03242*
X03274Y03255*
X03273Y03267*
X03269Y03279*
X03263Y03291*
X03255Y033*
X03246Y03308*
X03234Y03314*
X03222Y03318*
X0321Y03319*
X03197Y03318*
X03185Y03314*
X03173Y03308*
X03164Y033*
X03156Y03291*
X0315Y03279*
X03146Y03267*
X03145Y03255*
X03146Y03242*
X0315Y0323*
X03156Y03218*
X03164Y03209*
X03166Y03207*
Y03202*
X03164Y032*
X03156Y03191*
X0315Y03179*
X03146Y03167*
X03145Y03155*
X03146Y03142*
X0315Y0313*
X03156Y03118*
X03164Y03109*
X03166Y03107*
Y03102*
X03164Y031*
X03156Y03091*
X0315Y03079*
X03146Y03067*
X03145Y03055*
X03146Y03042*
X0315Y0303*
X03156Y03018*
X03164Y03009*
X03173Y03001*
X03185Y02995*
X03185Y02994*
X03186Y02989*
X0318Y02984*
X03173Y02975*
X03169Y02966*
X03165Y02964*
X03164Y02964*
X0311Y03018*
Y03316*
X03117Y03325*
X03123Y03335*
X03126Y03347*
X03127Y0336*
X03126Y03372*
X03123Y03384*
X03117Y03394*
X03109Y03404*
X03099Y03412*
X03089Y03418*
X03077Y03421*
X03065Y03422*
X03052Y03421*
X0304Y03418*
X0303Y03412*
X0302Y03404*
X03017Y034*
X03012*
X03009Y03404*
X02999Y03412*
X02989Y03418*
X02977Y03421*
X02965Y03422*
X02952Y03421*
X0294Y03418*
X0293Y03412*
X0292Y03404*
X02912Y03394*
X02906Y03384*
X02903Y03372*
X02902Y0336*
X02903Y03347*
X02906Y03335*
X02912Y03325*
X02919Y03316*
Y03129*
X02914Y03127*
X02907Y03122*
X02902Y03115*
X02899Y03107*
X02898Y03098*
Y03037*
X02899Y03029*
X02902Y0302*
X02907Y03014*
X02914Y03008*
X02922Y03005*
X02923Y03005*
X02925Y03*
X02924Y02999*
X02922Y02996*
X02921Y02992*
Y02966*
X02998*
Y02992*
X02997Y02996*
X02995Y02999*
X02994Y03*
X02996Y03005*
X02997Y03005*
X03005Y03008*
X03012Y03014*
X03014Y03017*
X03019Y03015*
Y02999*
X03021Y02988*
X03025Y02977*
X03032Y02967*
X03145Y02855*
X03145Y02855*
X03146Y02842*
X0315Y0283*
X03156Y02818*
X03157Y02816*
X03157Y02811*
X03154Y0281*
X03149Y02803*
X03146Y02795*
X03145Y02786*
Y02723*
X03146Y02714*
X03149Y02706*
X03154Y02699*
X03161Y02694*
X03169Y02691*
X03178Y0269*
X03241*
X0325Y02691*
X03258Y02694*
X0326Y02696*
X03264Y02693*
Y025*
X03266Y02488*
X03268Y02483*
X03268Y02482*
X03273Y0247*
X0328Y0246*
X0329Y02453*
X03302Y02448*
X03315Y02446*
X03327Y02448*
X03339Y02453*
X03349Y0246*
X03356Y0247*
X03361Y02482*
X03363Y02495*
X03361Y02507*
X03356Y02519*
X03355Y02521*
Y02568*
X0336Y0257*
X0337Y0256*
X0337Y0256*
X03371Y02547*
X03375Y02535*
X03381Y02523*
X03389Y02514*
X03391Y02512*
Y02507*
X03389Y02505*
X03381Y02496*
X03375Y02484*
X03371Y02472*
X0337Y0246*
X03371Y02447*
X03375Y02435*
X03381Y02423*
X03389Y02414*
X03391Y02412*
Y02407*
X03389Y02405*
X03381Y02396*
X03375Y02384*
X03371Y02372*
X0337Y0236*
X03371Y02347*
X03375Y02335*
X03381Y02323*
X03389Y02314*
X03398Y02306*
X0341Y023*
X0341Y02299*
X03411Y02294*
X03405Y02289*
X03398Y0228*
X03394Y0227*
X03393Y02265*
X03435*
X03476*
X03475Y0227*
X03471Y0228*
X03464Y02289*
X03458Y02294*
X03459Y02299*
X03459Y023*
X03471Y02306*
X0348Y02314*
X03481Y02314*
X03536*
X03537Y02312*
X03547Y02304*
X03557Y02299*
X03557Y02293*
X03554Y02291*
X03547Y02281*
X03542Y02271*
X03541Y02265*
X03628*
X03627Y02271*
X03622Y02281*
X03616Y02291*
X03612Y02293*
X03613Y02299*
X03622Y02304*
X03632Y02312*
X0364Y02322*
X03646Y02334*
X0365Y02346*
X03651Y0236*
X0365Y02373*
X03646Y02385*
X0364Y02397*
X03632Y02406*
X03631Y02408*
Y02411*
X03632Y02413*
X0364Y02422*
X03646Y02434*
X0365Y02446*
X03651Y0246*
X0365Y02473*
X03646Y02485*
X0364Y02497*
X0364Y02497*
X0364Y02502*
X03642Y02503*
X03647Y02509*
X0365Y02517*
X03651Y02526*
Y02593*
X0365Y02602*
X03647Y0261*
X03642Y02617*
X0364Y02618*
X03641Y02619*
X03642Y02623*
X03643Y02623*
X03643Y02624*
X03644Y02628*
X03647Y02636*
X03648Y02645*
Y02649*
X03648Y0265*
X03648Y0265*
Y02654*
X03647Y02663*
X03644Y02671*
X03643Y02675*
X03643Y02676*
X03642Y02676*
X03641Y0268*
X03636Y02687*
X03631Y02695*
X03628Y02698*
X03628Y02698*
X03628Y02698*
X03625Y02701*
X03617Y02706*
X0361Y02711*
X03606Y02712*
X03606Y02713*
X03605Y02713*
X03601Y02714*
X03593Y02717*
X03584Y02718*
X03582*
X0358Y02718*
X03577Y02718*
X03575*
X03566Y02717*
X03558Y02714*
X03554Y02713*
X03553Y02713*
X03553Y02712*
X03549Y02711*
X03542Y02706*
X03534Y02701*
X03531Y02698*
X03531Y02698*
X03531Y02698*
X03528Y02695*
X03523Y02687*
X03518Y0268*
X03517Y02676*
X03516Y02676*
X03516Y02675*
X03515Y02671*
X03512Y02663*
X03511Y02654*
Y0265*
X03511Y0265*
X03511Y02649*
Y02645*
X03512Y02636*
X03515Y02628*
X03516Y02624*
X03516Y02623*
X03517Y02623*
X03518Y02619*
X03523Y02612*
X03523Y02611*
X03522Y0261*
X0352Y02605*
X03481*
X0348Y02605*
X03471Y02613*
X03459Y02619*
X03447Y02623*
X03435Y02624*
X03434Y02624*
X0343Y02628*
Y02759*
X03431Y02762*
X03433Y02775*
X03431Y02787*
X03426Y02799*
X03419Y02809*
X03409Y02816*
X03397Y02821*
X03385Y02823*
X03372Y02821*
X0336Y02816*
X0335Y02809*
X03343Y02799*
X03338Y02787*
X03336Y02775*
X03337Y0277*
X03332Y02767*
X03322Y02771*
X0331Y02773*
X03297Y02771*
X03285Y02766*
X03279Y02762*
X03274Y02764*
Y02786*
X03273Y02795*
X0327Y02803*
X03268Y02805*
X03271Y02809*
X0329*
X03301Y02811*
X03312Y02815*
X03322Y02822*
X03372Y02872*
X03379Y02882*
X03383Y02893*
X03385Y02905*
Y03151*
X03538Y03304*
X03676*
X03676Y03303*
X03681Y03296*
X03688Y03291*
X03696Y03288*
X03705Y03287*
X03764*
X03773Y03288*
X03781Y03291*
X03788Y03296*
X0379Y033*
X03795Y03301*
X038Y03297*
X0381Y03291*
X03822Y03288*
X03835Y03287*
X03847Y03288*
X03859Y03291*
X03869Y03297*
X03879Y03305*
X03882Y03309*
X03887*
X0389Y03305*
X039Y03297*
X0391Y03291*
X03922Y03288*
X03935Y03287*
X03947Y03288*
X03959Y03291*
X03969Y03297*
X03979Y03305*
X03987Y03315*
X03993Y03325*
X03994Y03331*
X03999Y03331*
X04Y0333*
X04006Y03321*
X04015Y03315*
X04024Y03311*
X0403Y0331*
Y0335*
X04035*
Y03355*
X04074*
X04073Y0336*
X04069Y03369*
X04063Y03378*
X04054Y03384*
X04054Y03384*
X04055Y03389*
X04636*
X04705Y0332*
X04705Y03319*
X04703Y03315*
X04694Y03311*
X04685Y03304*
X0468Y03298*
X04675Y03299*
X04674Y03299*
X04668Y03311*
X0466Y0332*
X04651Y03328*
X04639Y03334*
X04627Y03338*
X04615Y03339*
X04602Y03338*
X0459Y03334*
X04578Y03328*
X04569Y0332*
X04567Y03318*
X04562*
X0456Y0332*
X04551Y03328*
X04539Y03334*
X04527Y03338*
X04515Y03339*
X04502Y03338*
X0449Y03334*
X04478Y03328*
X04469Y0332*
X04467Y03318*
X04462*
X0446Y0332*
X04451Y03328*
X04439Y03334*
X04427Y03338*
X04415Y03339*
X04402Y03338*
X0439Y03334*
X04378Y03328*
X04369Y0332*
X04367Y03318*
X04362*
X0436Y0332*
X04351Y03328*
X04339Y03334*
X04327Y03338*
X04315Y03339*
X04302Y03338*
X0429Y03334*
X04278Y03328*
X04269Y0332*
X04261Y03311*
X04255Y03299*
X04251Y03287*
X0425Y03275*
X04251Y03262*
X04255Y0325*
X04261Y03238*
X04269Y03229*
X04273Y03225*
X04272Y0322*
X04105*
X04093Y03218*
X04082Y03214*
X04072Y03207*
X03912Y03047*
X03905Y03037*
X03901Y03026*
X039Y03024*
X039Y03024*
X03897Y0302*
X03892*
X03889Y03024*
X03879Y03032*
X03869Y03038*
X03857Y03041*
X03845Y03042*
X03832Y03041*
X0382Y03038*
X0381Y03032*
X038Y03024*
X03797Y0302*
X03792*
X03789Y03024*
X03779Y03032*
X03769Y03038*
X03757Y03041*
X03745Y03042*
X03732Y03041*
X0372Y03038*
X0371Y03032*
X037Y03024*
X03697Y0302*
X03692*
X03689Y03024*
X03679Y03032*
X03669Y03038*
X03657Y03041*
X03645Y03042*
X03632Y03041*
X0362Y03038*
X0361Y03032*
X036Y03024*
X03597Y0302*
X03592*
X03589Y03024*
X03579Y03032*
X03569Y03038*
X03557Y03041*
X03545Y03042*
X03532Y03041*
X0352Y03038*
X0351Y03032*
X035Y03024*
X03492Y03014*
X03486Y03004*
X03485Y02998*
X0348Y02998*
X03479Y02999*
X03473Y03008*
X03464Y03014*
X03455Y03018*
X0345Y03019*
Y0298*
Y0294*
X03455Y02941*
X03464Y02945*
X03473Y02951*
X03479Y0296*
X0348Y02961*
X03485Y02961*
X03486Y02955*
X03492Y02945*
X035Y02935*
X0351Y02927*
X0352Y02921*
X03532Y02918*
X03543Y02917*
X03664Y02796*
Y0177*
X03666Y01758*
X0367Y01747*
X03677Y01737*
X03987Y01427*
X03997Y0142*
X04008Y01416*
X0402Y01414*
X04136*
X04137Y01413*
X04138Y01411*
Y01408*
X04137Y01406*
X04129Y01397*
X04123Y01385*
X04119Y01373*
X04118Y0136*
X04119Y01346*
X04123Y01334*
X04129Y01322*
X04137Y01313*
X04138Y01311*
Y01308*
X04137Y01306*
X04129Y01297*
X04123Y01285*
X04119Y01273*
X04118Y0126*
X04119Y01246*
X04123Y01234*
X04129Y01222*
X04137Y01213*
X04138Y01211*
Y01209*
X04134Y01205*
X03985*
X03973Y01203*
X03962Y01199*
X03952Y01192*
X03796Y01035*
X03643*
X03643Y01036*
X03641Y0104*
X03642Y01043*
X03643Y01043*
X03643Y01044*
X03644Y01048*
X03647Y01056*
X03648Y01065*
Y01069*
X03648Y0107*
X03648Y0107*
Y01074*
X03647Y01083*
X03644Y01091*
X03643Y01095*
X03643Y01096*
X03642Y01096*
X03641Y011*
X03636Y01107*
X03632Y01113*
X0364Y01122*
X03646Y01134*
X0365Y01146*
X03651Y0116*
X0365Y01173*
X03646Y01185*
X0364Y01197*
X03632Y01206*
X03631Y01208*
Y01211*
X03632Y01213*
X0364Y01222*
X03646Y01234*
X0365Y01246*
X03651Y0126*
X0365Y01273*
X03646Y01285*
X0364Y01297*
X03632Y01306*
X03631Y01308*
Y01311*
X03632Y01313*
X0364Y01322*
X03646Y01334*
X0365Y01346*
X03651Y0136*
X0365Y01373*
X03646Y01385*
X0364Y01397*
X03632Y01406*
X03631Y01408*
Y01411*
X03632Y01413*
X0364Y01422*
X03646Y01434*
X0365Y01446*
X03651Y0146*
X0365Y01473*
X03646Y01485*
X0364Y01497*
X03632Y01506*
X03631Y01508*
Y01511*
X03632Y01513*
X0364Y01522*
X03646Y01534*
X0365Y01546*
X03651Y0156*
X0365Y01573*
X03646Y01585*
X0364Y01597*
X03632Y01606*
X03631Y01608*
Y01612*
X03632Y01612*
X0364Y01622*
X03646Y01634*
X0365Y01646*
X03651Y0166*
X0365Y01673*
X03646Y01685*
X0364Y01697*
X03632Y01706*
X03631Y01708*
Y01711*
X03632Y01713*
X0364Y01722*
X03646Y01734*
X0365Y01746*
X03651Y0176*
X0365Y01773*
X03646Y01785*
X0364Y01797*
X03632Y01806*
X03631Y01808*
Y01811*
X03632Y01813*
X0364Y01822*
X03646Y01834*
X0365Y01846*
X03651Y0186*
X0365Y01873*
X03646Y01885*
X0364Y01897*
X03632Y01906*
X03631Y01908*
Y01911*
X03632Y01913*
X0364Y01922*
X03646Y01934*
X0365Y01946*
X03651Y0196*
X0365Y01973*
X03646Y01985*
X0364Y01997*
X03632Y02006*
X03631Y02008*
Y02011*
X03632Y02013*
X0364Y02022*
X03646Y02034*
X0365Y02046*
X03651Y0206*
X0365Y02073*
X03646Y02085*
X0364Y02097*
X03632Y02106*
X03631Y02108*
Y02111*
X03632Y02113*
X0364Y02122*
X03646Y02134*
X0365Y02146*
X03651Y0216*
X0365Y02173*
X03646Y02185*
X0364Y02197*
X03632Y02207*
X03622Y02215*
X03613Y0222*
X03612Y02226*
X03616Y02229*
X03622Y02238*
X03627Y02248*
X03628Y02255*
X03541*
X03542Y02248*
X03547Y02238*
X03554Y02229*
X03557Y02226*
X03557Y0222*
X03547Y02215*
X03537Y02207*
X03536Y02205*
X03481*
X0348Y02205*
X03471Y02213*
X03459Y02219*
X03459Y0222*
X03458Y02225*
X03464Y0223*
X03471Y02239*
X03475Y02249*
X03476Y02255*
X03435*
X03393*
X03394Y02249*
X03398Y02239*
X03405Y0223*
X03411Y02225*
X0341Y0222*
X0341Y02219*
X03398Y02213*
X03389Y02205*
X03381Y02196*
X03375Y02184*
X03371Y02172*
X0337Y0216*
X03371Y02147*
X03375Y02135*
X03381Y02123*
X03389Y02114*
X03391Y02112*
Y02107*
X03389Y02105*
X03381Y02096*
X0338Y02094*
X03375Y02095*
Y02099*
X03373Y0211*
X03369Y02121*
X03362Y02131*
X03214Y02278*
X03214Y02279*
X03213Y02291*
X03209Y02303*
X03203Y02315*
X03195Y02324*
X03186Y02332*
X03174Y02338*
X03173Y02339*
Y02344*
X03174Y02344*
X03186Y0235*
X03195Y02358*
X03203Y02368*
X03209Y02379*
X03213Y02391*
X03214Y02404*
X03213Y02417*
X03209Y02429*
X03203Y0244*
X03195Y0245*
X03186Y02458*
X03174Y02464*
X03173Y02464*
Y02469*
X03174Y0247*
X03186Y02476*
X03195Y02484*
X03203Y02493*
X03209Y02505*
X03213Y02517*
X03214Y0253*
X03213Y02542*
X03209Y02554*
X03203Y02566*
X03195Y02575*
X03186Y02583*
X03174Y02589*
X03162Y02593*
X0315Y02594*
X03137Y02593*
X03125Y02589*
X03113Y02583*
X03104Y02575*
X03102Y02573*
X03097*
X03095Y02575*
X03086Y02583*
X03074Y02589*
X03062Y02593*
X0305Y02594*
X03037Y02593*
X03025Y02589*
X03013Y02583*
X03004Y02575*
X02996Y02566*
X02995Y02565*
X02993Y02565*
X0299Y02566*
X02988Y02568*
X02985Y0257*
X02981Y02571*
X02955*
Y0253*
Y02488*
X02981*
X02981Y02488*
X02986Y02484*
Y0245*
X02981Y02446*
X02981Y02446*
X02955*
Y02404*
Y02362*
X02981*
X02981Y02362*
X02986Y02358*
Y02324*
X02981Y0232*
X02981Y0232*
X02955*
Y02279*
Y02237*
X02981*
X02981Y02237*
X02986Y02233*
Y02199*
X02981Y02195*
X02981Y02195*
X02955*
Y02153*
Y02111*
X02981*
X02981Y02111*
X02986Y02108*
Y02073*
X02981Y02069*
X02981Y02069*
X02955*
Y02028*
Y01986*
X02981*
X02981Y01986*
X02986Y01982*
Y01948*
X02981Y01944*
X02981Y01944*
X02955*
Y01902*
Y01861*
X02981*
X02981Y01861*
X02986Y01857*
Y01822*
X02981Y01818*
X02981Y01818*
X02955*
Y01777*
Y01735*
X02981*
X02981Y01735*
X02986Y01731*
Y01697*
X02981Y01693*
X02981Y01693*
X02955*
Y01651*
Y0161*
X02981*
X02981Y0161*
X02986Y01606*
Y01571*
X02981Y01568*
X02981Y01568*
X02955*
Y01526*
Y01484*
X02981*
X02981Y01484*
X02986Y0148*
Y01446*
X02981Y01442*
X02981Y01442*
X02955*
Y014*
Y01359*
X02981*
X02981Y01359*
X02986Y01355*
Y01321*
X02981Y01317*
X02981Y01317*
X02955*
Y01275*
Y01233*
X02981*
X02981Y01233*
X02986Y01229*
Y01195*
X02981Y01191*
X02981Y01191*
X02955*
Y0115*
Y01108*
X02981*
X02985Y01109*
X02988Y01111*
X0299Y01113*
X02993Y01114*
X02995Y01114*
X02996Y01113*
X03004Y01104*
X03013Y01096*
X03025Y0109*
X03037Y01086*
X0305Y01085*
X03062Y01086*
X03074Y0109*
X03086Y01096*
X03095Y01104*
X03097Y01106*
X03102*
X03104Y01104*
X03113Y01096*
X03125Y0109*
X03137Y01086*
X03145Y01085*
X03252Y00977*
X0325Y00973*
X02883*
Y03571*
X05391*
Y03399*
G37*
G36*
X03302Y01127D02*
X03312Y0112D01*
X03323Y01116*
X03335Y01114*
X03373*
X03374Y01111*
X03379Y01104*
X03386Y01099*
X03394Y01096*
X03403Y01095*
X03466*
X03475Y01096*
X03483Y01099*
X0349Y01104*
X03495Y01111*
X03496Y01114*
X03522*
X03524Y0111*
X03523Y01107*
X03518Y011*
X03517Y01096*
X03516Y01096*
X03516Y01095*
X03515Y01091*
X03512Y01083*
X03511Y01074*
Y0107*
X03511Y0107*
X03511Y01069*
Y01065*
X03512Y01056*
X03515Y01048*
X03516Y01044*
X03516Y01043*
X03517Y01043*
X03518Y0104*
X03516Y01036*
X03516Y01035*
X03323*
X03214Y01144*
X03214Y0115*
X03213Y01162*
X03209Y01174*
X03203Y01186*
X03195Y01195*
X03186Y01203*
X03174Y01209*
X03173Y0121*
Y01215*
X03174Y01215*
X03186Y01221*
X03195Y01229*
X03195Y01229*
X032Y01229*
X03302Y01127*
G37*
%LNqudruped_nano-2*%
%LPC*%
G36*
X02945Y01818D02*
X02918D01*
X02914Y01818*
X02911Y01815*
X02909Y01812*
X02908Y01808*
Y01782*
X02945*
Y01818*
G37*
G36*
Y01897D02*
X02908D01*
Y01871*
X02909Y01867*
X02911Y01864*
X02914Y01861*
X02918Y01861*
X02945*
Y01897*
G37*
G36*
X04575Y01861D02*
X04561Y0186D01*
X04549Y01856*
X04537Y0185*
X04527Y01842*
X04519Y01832*
X04513Y0182*
X04509Y01808*
X04508Y01795*
X04509Y01781*
X04513Y01769*
X04519Y01757*
X04527Y01747*
X04537Y01739*
X04549Y01733*
X04561Y01729*
X04575Y01728*
X04588Y01729*
X046Y01733*
X04612Y01739*
X04622Y01747*
X0463Y01757*
X04635Y01767*
X04641Y01767*
X04644Y01764*
X04653Y01757*
X04663Y01752*
X0467Y01751*
Y01795*
Y01838*
X04663Y01837*
X04653Y01832*
X04644Y01826*
X04641Y01822*
X04635Y01823*
X0463Y01832*
X04622Y01842*
X04612Y0185*
X046Y01856*
X04588Y0186*
X04575Y01861*
G37*
G36*
X02945Y01772D02*
X02908D01*
Y01745*
X02909Y01741*
X02911Y01738*
X02914Y01736*
X02918Y01735*
X02945*
Y01772*
G37*
G36*
X05095Y01856D02*
X05081Y01855D01*
X05069Y01851*
X05057Y01845*
X05047Y01837*
X05039Y01827*
X05033Y01815*
X05029Y01803*
X05028Y0179*
X05029Y01776*
X05033Y01764*
X05039Y01752*
X05047Y01742*
X05057Y01734*
X05069Y01728*
X05081Y01724*
X05095Y01723*
X05108Y01724*
X0512Y01728*
X05132Y01734*
X05142Y01742*
X0515Y01752*
X05155Y01762*
X05161Y01762*
X05164Y01759*
X05173Y01752*
X05183Y01747*
X0519Y01746*
Y0179*
Y01833*
X05183Y01832*
X05173Y01827*
X05164Y01821*
X05161Y01817*
X05155Y01818*
X0515Y01827*
X05142Y01837*
X05132Y01845*
X0512Y01851*
X05108Y01855*
X05095Y01856*
G37*
G36*
X04876Y0213D02*
X04842D01*
X04842Y02124*
X04846Y02115*
X04853Y02106*
X04861Y021*
X0487Y02096*
X04876Y02095*
Y0213*
G37*
G36*
X05155D02*
X05121D01*
X05122Y02124*
X05126Y02115*
X05132Y02106*
X0514Y021*
X0515Y02096*
X05155Y02095*
Y0213*
G37*
G36*
X04616Y02202D02*
X04604Y02201D01*
X04592Y02198*
X04581Y02192*
X04571Y02184*
X04564Y02174*
X04558Y02164*
X04554Y02152*
X04553Y0214*
X04554Y02127*
X04558Y02115*
X04564Y02105*
X04571Y02095*
X04581Y02087*
X04592Y02081*
X04604Y02078*
X04616Y02077*
X04628Y02078*
X0464Y02081*
X04651Y02087*
X0466Y02095*
X04668Y02105*
X04668Y02105*
X04673Y02106*
X04675Y02105*
X04684Y02101*
X0469Y021*
Y0214*
Y02179*
X04684Y02178*
X04675Y02174*
X04673Y02173*
X04668Y02174*
X04668Y02174*
X0466Y02184*
X04651Y02192*
X0464Y02198*
X04628Y02201*
X04616Y02202*
G37*
G36*
X02945Y01944D02*
X02918D01*
X02914Y01943*
X02911Y01941*
X02909Y01938*
X02908Y01934*
Y01907*
X02945*
Y01944*
G37*
G36*
Y02023D02*
X02908D01*
Y01996*
X02909Y01992*
X02911Y01989*
X02914Y01987*
X02918Y01986*
X02945*
Y02023*
G37*
G36*
Y02069D02*
X02918D01*
X02914Y02069*
X02911Y02066*
X02909Y02063*
X02908Y02059*
Y02033*
X02945*
Y02069*
G37*
G36*
Y01693D02*
X02918D01*
X02914Y01692*
X02911Y0169*
X02909Y01687*
X02908Y01683*
Y01656*
X02945*
Y01693*
G37*
G36*
Y0127D02*
X02908D01*
Y01243*
X02909Y0124*
X02911Y01236*
X02914Y01234*
X02918Y01233*
X02945*
Y0127*
G37*
G36*
Y01317D02*
X02918D01*
X02914Y01316*
X02911Y01314*
X02909Y0131*
X02908Y01306*
Y0128*
X02945*
Y01317*
G37*
G36*
Y01395D02*
X02908D01*
Y01369*
X02909Y01365*
X02911Y01362*
X02914Y01359*
X02918Y01359*
X02945*
Y01395*
G37*
G36*
Y01145D02*
X02908D01*
Y01118*
X02909Y01114*
X02911Y01111*
X02914Y01109*
X02918Y01108*
X02945*
Y01145*
G37*
G36*
X04575Y01231D02*
X04561Y0123D01*
X04549Y01226*
X04537Y0122*
X04527Y01212*
X04519Y01202*
X04513Y0119*
X04509Y01178*
X04508Y01165*
X04509Y01151*
X04513Y01139*
X04519Y01127*
X04527Y01117*
X04537Y01109*
X04549Y01103*
X04561Y01099*
X04575Y01098*
X04588Y01099*
X046Y01103*
X04612Y01109*
X04622Y01117*
X0463Y01127*
X04635Y01137*
X04641Y01137*
X04644Y01134*
X04653Y01127*
X04663Y01122*
X0467Y01121*
Y01165*
Y01208*
X04663Y01207*
X04653Y01202*
X04644Y01196*
X04641Y01192*
X04635Y01193*
X0463Y01202*
X04622Y01212*
X04612Y0122*
X046Y01226*
X04588Y0123*
X04575Y01231*
G37*
G36*
X02945Y01191D02*
X02918D01*
X02914Y0119*
X02911Y01188*
X02909Y01185*
X02908Y01181*
Y01155*
X02945*
Y01191*
G37*
G36*
Y01521D02*
X02908D01*
Y01494*
X02909Y0149*
X02911Y01487*
X02914Y01485*
X02918Y01484*
X02945*
Y01521*
G37*
G36*
Y01568D02*
X02918D01*
X02914Y01567*
X02911Y01565*
X02909Y01561*
X02908Y01557*
Y01531*
X02945*
Y01568*
G37*
G36*
Y01646D02*
X02908D01*
Y0162*
X02909Y01616*
X02911Y01613*
X02914Y0161*
X02918Y0161*
X02945*
Y01646*
G37*
G36*
Y01442D02*
X02918D01*
X02914Y01441*
X02911Y01439*
X02909Y01436*
X02908Y01432*
Y01405*
X02945*
Y01442*
G37*
G36*
X04575Y01546D02*
X04561Y01545D01*
X04549Y01541*
X04537Y01535*
X04527Y01527*
X04519Y01517*
X04513Y01505*
X04509Y01493*
X04508Y0148*
X04509Y01466*
X04513Y01454*
X04519Y01442*
X04527Y01432*
X04537Y01424*
X04549Y01418*
X04561Y01414*
X04575Y01413*
X04588Y01414*
X046Y01418*
X04612Y01424*
X04622Y01432*
X0463Y01442*
X04635Y01452*
X04641Y01452*
X04644Y01449*
X04653Y01442*
X04663Y01437*
X0467Y01436*
Y0148*
Y01523*
X04663Y01522*
X04653Y01517*
X04644Y01511*
X04641Y01507*
X04635Y01508*
X0463Y01517*
X04622Y01527*
X04612Y01535*
X046Y01541*
X04588Y01545*
X04575Y01546*
G37*
G36*
X05095D02*
X05081Y01545D01*
X05069Y01541*
X05057Y01535*
X05047Y01527*
X05039Y01517*
X05033Y01505*
X05029Y01493*
X05028Y0148*
X05029Y01466*
X05033Y01454*
X05039Y01442*
X05047Y01432*
X05057Y01424*
X05069Y01418*
X05081Y01414*
X05095Y01413*
X05108Y01414*
X0512Y01418*
X05132Y01424*
X05142Y01432*
X0515Y01442*
X05155Y01452*
X05161Y01452*
X05164Y01449*
X05173Y01442*
X05183Y01437*
X0519Y01436*
Y0148*
Y01523*
X05183Y01522*
X05173Y01517*
X05164Y01511*
X05161Y01507*
X05155Y01508*
X0515Y01517*
X05142Y01527*
X05132Y01535*
X0512Y01541*
X05108Y01545*
X05095Y01546*
G37*
G36*
X04734Y02135D02*
X047D01*
Y021*
X04705Y02101*
X04714Y02105*
X04723Y02111*
X04729Y0212*
X04733Y02129*
X04734Y02135*
G37*
G36*
X04849Y02955D02*
X04815D01*
Y0292*
X0482Y02921*
X04829Y02925*
X04838Y02931*
X04844Y0294*
X04848Y02949*
X04849Y02955*
G37*
G36*
X04619D02*
X04585D01*
Y0292*
X0459Y02921*
X04599Y02925*
X04608Y02931*
X04614Y0294*
X04618Y02949*
X04619Y02955*
G37*
G36*
X02955Y02956D02*
X02921D01*
Y02931*
X02922Y02927*
X02924Y02924*
X02927Y02921*
X02931Y02921*
X02955*
Y02956*
G37*
G36*
X02945Y02525D02*
X02908D01*
Y02498*
X02909Y02494*
X02911Y02491*
X02914Y02489*
X02918Y02488*
X02945*
Y02525*
G37*
G36*
Y02571D02*
X02918D01*
X02914Y0257*
X02911Y02568*
X02909Y02565*
X02908Y02561*
Y02535*
X02945*
Y02571*
G37*
G36*
X04739Y03022D02*
X0468D01*
X04671Y03021*
X04663Y03018*
X04656Y03013*
X04651Y03006*
X04648Y02998*
X04647Y02989*
Y0293*
X04648Y02921*
X04651Y02913*
X04656Y02906*
X04663Y02901*
X04671Y02898*
X0468Y02897*
X04739*
X04748Y02898*
X04756Y02901*
X04763Y02906*
X04768Y02913*
X04771Y02921*
X04772Y0293*
Y02935*
X04777Y02937*
X04781Y02931*
X0479Y02925*
X04799Y02921*
X04805Y0292*
Y0296*
Y02999*
X04799Y02998*
X0479Y02994*
X04781Y02988*
X04777Y02982*
X04772Y02984*
Y02989*
X04771Y02998*
X04768Y03006*
X04763Y03013*
X04756Y03018*
X04748Y03021*
X04739Y03022*
G37*
G36*
X04815Y02999D02*
Y02965D01*
X04849*
X04848Y0297*
X04844Y02979*
X04838Y02988*
X04829Y02994*
X0482Y02998*
X04815Y02999*
G37*
G36*
X0344Y03019D02*
X03434Y03018D01*
X03425Y03014*
X03416Y03008*
X0341Y02999*
X03406Y0299*
X03405Y02985*
X0344*
Y03019*
G37*
G36*
X04074Y03345D02*
X0404D01*
Y0331*
X04045Y03311*
X04054Y03315*
X04063Y03321*
X04069Y0333*
X04073Y03339*
X04074Y03345*
G37*
G36*
X02998Y02956D02*
X02965D01*
Y02921*
X02988*
X02992Y02921*
X02995Y02924*
X02997Y02927*
X02998Y02931*
Y02956*
G37*
G36*
X0344Y02975D02*
X03405D01*
X03406Y02969*
X0341Y0296*
X03416Y02951*
X03425Y02945*
X03434Y02941*
X0344Y0294*
Y02975*
G37*
G36*
X04585Y02999D02*
Y02965D01*
X04619*
X04618Y0297*
X04614Y02979*
X04608Y02988*
X04599Y02994*
X0459Y02998*
X04585Y02999*
G37*
G36*
X05131Y02513D02*
X05095D01*
Y02467*
X05141*
Y02503*
X0514Y02507*
X05138Y0251*
X05135Y02512*
X05131Y02513*
G37*
G36*
X047Y02179D02*
Y02145D01*
X04734*
X04733Y0215*
X04729Y02159*
X04723Y02168*
X04714Y02174*
X04705Y02178*
X047Y02179*
G37*
G36*
X02945Y02195D02*
X02918D01*
X02914Y02194*
X02911Y02192*
X02909Y02189*
X02908Y02185*
Y02158*
X02945*
Y02195*
G37*
G36*
Y02274D02*
X02908D01*
Y02247*
X02909Y02243*
X02911Y0224*
X02914Y02238*
X02918Y02237*
X02945*
Y02274*
G37*
G36*
Y02148D02*
X02908D01*
Y02122*
X02909Y02118*
X02911Y02114*
X02914Y02112*
X02918Y02111*
X02945*
Y02148*
G37*
G36*
X04876Y02174D02*
X0487Y02173D01*
X04861Y02169*
X04853Y02163*
X04846Y02154*
X04842Y02145*
X04842Y0214*
X04876*
Y02174*
G37*
G36*
X05155D02*
X0515Y02173D01*
X0514Y02169*
X05132Y02163*
X05126Y02154*
X05122Y02145*
X05121Y0214*
X05155*
Y02174*
G37*
G36*
X05085Y02457D02*
X05038D01*
Y0242*
X05039Y02416*
X05041Y02413*
X05044Y02411*
X05048Y0241*
X05085*
Y02457*
G37*
G36*
X05141D02*
X05095D01*
Y0241*
X05131*
X05135Y02411*
X05138Y02413*
X0514Y02416*
X05141Y0242*
Y02457*
G37*
G36*
X05085Y02513D02*
X05048D01*
X05044Y02512*
X05041Y0251*
X05039Y02507*
X05038Y02503*
Y02467*
X05085*
Y02513*
G37*
G36*
X02945Y0232D02*
X02918D01*
X02914Y0232*
X02911Y02317*
X02909Y02314*
X02908Y0231*
Y02284*
X02945*
Y0232*
G37*
G36*
Y02399D02*
X02908D01*
Y02373*
X02909Y02369*
X02911Y02365*
X02914Y02363*
X02918Y02362*
X02945*
Y02399*
G37*
G36*
Y02446D02*
X02918D01*
X02914Y02445*
X02911Y02443*
X02909Y02439*
X02908Y02436*
Y02409*
X02945*
Y02446*
G37*
%LNqudruped_nano-3*%
%LPD*%
G54D10*
X0296Y02961D03*
Y03068D03*
G54D11*
X04185Y0186D02*
X04335D01*
X04185Y0196D02*
X04335D01*
X0446Y0298D02*
X0448Y0296D01*
X04345Y0298D02*
X0446D01*
X04515Y02745D02*
Y02755D01*
Y02365D02*
Y02745D01*
Y02755D02*
X0496Y0231D01*
X0448Y0278D02*
Y0296D01*
Y0278D02*
X04515Y02745D01*
X0441Y0226D02*
X04515Y02365D01*
X04335Y0226D02*
X0441D01*
X0496Y02135D02*
Y0231D01*
X0305Y0115D02*
Y01275D01*
Y014*
Y01526*
Y01651*
Y01777*
Y01902*
Y02028*
Y02153*
Y02279*
Y02404*
Y0253*
X0509Y026D02*
Y03045D01*
X0528Y03235*
X0477Y0179D02*
X04775Y01795D01*
X0477Y01485D02*
Y0179D01*
Y01485D02*
X04775Y0148D01*
Y01165D02*
Y0148D01*
X05295Y0118D02*
Y0148D01*
Y01115D02*
Y0118D01*
X04775Y01165D02*
X04875Y01065D01*
X05245*
X05295Y01115*
Y0148D02*
Y0179D01*
Y02079*
X05239Y02135D02*
X05295Y02079D01*
X05239Y02135D02*
X05385Y0228D01*
Y0331*
X05335Y0336D02*
X05385Y0331D01*
X0528Y0336D02*
X05335D01*
G54D12*
X04415Y03175D02*
X04515Y03275D01*
X04105Y03175D02*
X04415D01*
X03945Y03015D02*
X04105Y03175D01*
X03945Y0298D02*
Y03015D01*
X04045Y0298D02*
X04195Y0313D01*
X0447*
X04615Y03275*
X04655Y03435D02*
X04815Y03275D01*
X03795Y03435D02*
X04655D01*
X03735Y03375D02*
X03795Y03435D01*
X03735Y0335D02*
Y03375D01*
X0352Y0335D02*
X03735D01*
X0334Y0317D02*
X0352Y0335D01*
X0334Y02905D02*
Y0317D01*
X0329Y02855D02*
X0334Y02905D01*
X0321Y02855D02*
X0329D01*
X04185Y0146D02*
X04335D01*
X0402D02*
X04185D01*
X0371Y0177D02*
X0402Y0146D01*
X0371Y0177D02*
Y02815D01*
X03545Y0298D02*
X0371Y02815D01*
X0399Y0278D02*
X04045Y02835D01*
X0399Y02045D02*
Y0278D01*
Y02045D02*
X04075Y0196D01*
X03645Y0298D02*
X03765Y0286D01*
Y0182D02*
Y0286D01*
Y0182D02*
X0403Y01555D01*
X0402Y01655D02*
X0433D01*
X03745Y0298D02*
X03835Y0289D01*
Y0184D02*
Y0289D01*
Y0184D02*
X0402Y01655D01*
X04055Y01755D02*
X0433D01*
X03845Y0298D02*
X0389Y02935D01*
Y0192D02*
Y02935D01*
Y0192D02*
X04055Y01755D01*
X04185Y0156D02*
X04335D01*
X04035D02*
X04185D01*
X0403Y01555D02*
X04035Y0156D01*
X0433Y01655D02*
X04335Y0166D01*
X0433Y01755D02*
X04335Y0176D01*
X03941Y01994D02*
X04075Y0186D01*
X04185*
X03941Y01994D02*
Y02976D01*
X03945Y0298*
X04075Y0196D02*
X04185D01*
X04045Y02835D02*
Y0298D01*
X04185Y0216D02*
X04335D01*
X04185Y0206D02*
X04335D01*
X0418Y02065D02*
X04185Y0206D01*
X04115Y02065D02*
X0418D01*
X0404Y0214D02*
X04115Y02065D01*
X0404Y0214D02*
Y0274D01*
X04145Y02845*
Y0298*
X0414Y0216D02*
X04185D01*
X04095Y02205D02*
X0414Y0216D01*
X04095Y02205D02*
Y0269D01*
X04245Y0284*
Y0298*
X03985Y0116D02*
X04185D01*
X02945Y03066D02*
X02965Y03086D01*
X0315Y01145D02*
Y0115D01*
Y01145D02*
X03305Y0099D01*
X03815*
X03985Y0116*
X0331Y025D02*
Y02725D01*
Y025D02*
X03315Y02495D01*
X03385Y0261D02*
X03435Y0256D01*
X03385Y0261D02*
Y02775D01*
X03065Y02999D02*
X0321Y02855D01*
X04815Y032D02*
Y03275D01*
Y032D02*
X0482Y03195D01*
X0473Y03105D02*
X0482Y03195D01*
X04565Y03105D02*
X0473D01*
X0448Y0302D02*
X04565Y03105D01*
X0448Y0296D02*
Y0302D01*
X0337Y0196D02*
X03435D01*
X0333Y02D02*
X0337Y0196D01*
X0333Y02D02*
Y02099D01*
X0315Y02279D02*
X0333Y02099D01*
X03161Y02153D02*
X03285Y0203D01*
Y01935D02*
Y0203D01*
Y01935D02*
X0336Y0186D01*
X03435*
X03375Y0176D02*
X03435D01*
X03225Y0191D02*
X03375Y0176D01*
X03225Y0191D02*
Y02005D01*
X03392Y0166D02*
X03435D01*
X0315Y01902D02*
X03392Y0166D01*
X03325Y0136D02*
X03435D01*
X03158Y01526D02*
X03325Y0136D01*
X0315Y01526D02*
X03158D01*
X03341Y0146D02*
X03435D01*
X03367Y0156D02*
X03435D01*
X0315Y01777D02*
X03367Y0156D01*
X03201Y02028D02*
X03225Y02005D01*
X0315Y02153D02*
X03161D01*
X0315Y02028D02*
X03201D01*
X0315Y01651D02*
X03341Y0146D01*
X03335Y0126D02*
X03435D01*
X03194Y014D02*
X03335Y0126D01*
X0315Y014D02*
X03194D01*
X03335Y0116D02*
X03435D01*
X03219Y01275D02*
X03335Y0116D01*
X0315Y01275D02*
X03219D01*
X02965Y03086D02*
Y0336D01*
X03065Y02999D02*
Y0336D01*
X03435Y0256D02*
X03585D01*
X03435Y0246D02*
X03585D01*
X03435Y0236D02*
X03585D01*
X03435Y0226D02*
X03585D01*
X03435Y0216D02*
X03585D01*
X03435Y0206D02*
X03585D01*
X03435Y0196D02*
X03585D01*
X03435Y0186D02*
X03585D01*
X03435Y0176D02*
X03585D01*
X03435Y0166D02*
X03585D01*
X03435Y0156D02*
X03585D01*
X03435Y0146D02*
X03585D01*
X03435Y0136D02*
X03585D01*
X03435Y0126D02*
X03585D01*
X03435Y0116D02*
X03585D01*
X04185Y0136D02*
X04335D01*
X04185Y0126D02*
X04335D01*
X04185Y0116D02*
X04335D01*
X04185Y0226D02*
X04335D01*
X04185Y0236D02*
X04335D01*
X04185Y0246D02*
X04335D01*
X04185Y0256D02*
X04335D01*
G54D13*
X03585Y0256D03*
X05295Y0179D03*
Y0148D03*
Y0118D03*
X04775Y01165D03*
Y0148D03*
Y01795D03*
G54D14*
X03585Y0246D03*
Y0236D03*
Y0226D03*
Y0216D03*
Y0206D03*
Y0196D03*
Y0186D03*
Y0176D03*
Y0166D03*
Y0156D03*
Y0146D03*
Y0136D03*
Y0126D03*
Y0116D03*
X04185D03*
Y0126D03*
Y0136D03*
Y0146D03*
Y0156D03*
Y0166D03*
Y0176D03*
Y0186D03*
Y0196D03*
Y0206D03*
Y0216D03*
Y0226D03*
Y0236D03*
Y0246D03*
Y0256D03*
X05195Y0179D03*
X05095D03*
X05195Y0148D03*
X05095D03*
X05195Y0118D03*
X05095D03*
X04675Y01165D03*
X04575D03*
X04675Y0148D03*
X04575D03*
X04675Y01795D03*
X04575D03*
G54D15*
X0358Y0107D03*
X0419D03*
X0358Y0265D03*
X0419D03*
G54D16*
X0528Y03235D03*
Y0336D03*
Y03485D03*
G54D17*
X0321Y03155D03*
Y02955D03*
Y02855D03*
Y03055D03*
Y03255D03*
X0305Y0115D03*
X0315D03*
X0305Y01275D03*
X0315D03*
X0305Y014D03*
X0315D03*
X0305Y01526D03*
X0315D03*
X0305Y01651D03*
X0315D03*
X0305Y01777D03*
X0315D03*
X0305Y01902D03*
X0315D03*
X0305Y02028D03*
X0315D03*
X0305Y02153D03*
X0315D03*
X0305Y02279D03*
X0315D03*
X0305Y02404D03*
X0315D03*
X0305Y0253D03*
X0315D03*
X03435Y0126D03*
Y0136D03*
Y0146D03*
Y0156D03*
Y0166D03*
Y0176D03*
Y0186D03*
Y0196D03*
Y0206D03*
Y0216D03*
Y0226D03*
Y0236D03*
Y0246D03*
Y0256D03*
X04335Y0126D03*
Y0136D03*
Y0146D03*
Y0156D03*
Y0166D03*
Y0176D03*
Y0186D03*
Y0196D03*
Y0206D03*
Y0216D03*
Y0226D03*
Y0236D03*
Y0246D03*
Y0256D03*
X04415Y03275D03*
X04615D03*
X04715D03*
X04515D03*
X04315D03*
G54D18*
X0321Y02755D03*
X03435Y0116D03*
X04335D03*
G54D19*
X03445Y0298D03*
X03545D03*
X03745D03*
X03845D03*
X04045D03*
X04145D03*
X04245D03*
X03945D03*
X03645D03*
X0458Y0296D03*
X0481D03*
X04616Y0214D03*
X04695D03*
X05239Y02135D03*
X0516D03*
X0496D03*
X04881D03*
X03835Y0335D03*
X03935D03*
X04035D03*
X03065Y0336D03*
X02965D03*
G54D20*
X04345Y0298D03*
X0448Y0296D03*
X0471D03*
X03735Y0335D03*
G54D21*
X0509Y026D03*
G54D22*
X0509Y02462D03*
G54D23*
X0295Y0115D03*
Y01275D03*
Y014D03*
Y01526D03*
Y01651D03*
Y01777D03*
Y01902D03*
Y02028D03*
Y02153D03*
Y02279D03*
Y02404D03*
Y0253D03*
X04815Y03275D03*
G54D24*
X03315Y02495D03*
X03385Y02775D03*
X0331Y02725D03*
M02*