%FSTAX23Y23*%
%MOIN*%
%SFA1B1*%

%IPPOS*%
%ADD25C,0.007870*%
%ADD26C,0.005910*%
%ADD27C,0.005000*%
%ADD28C,0.008000*%
%ADD29C,0.002760*%
%ADD30C,0.010000*%
%ADD31C,0.007000*%
%ADD32C,0.004000*%
%ADD33R,0.003940X0.143700*%
%ADD34R,0.004920X0.133860*%
%ADD35R,0.004920X0.122050*%
%ADD36R,0.000980X0.003940*%
%ADD37R,0.000980X0.002950*%
%ADD38R,0.003940X0.109250*%
%ADD39R,0.003940X0.095470*%
%ADD40R,0.003940X0.077760*%
%ADD41R,0.003940X0.054130*%
%LNqudruped_nano-1*%
%LPD*%
G36*
X03885Y00949D02*
X03875D01*
X03874Y00949*
X03874*
X03873Y00949*
X03873Y00949*
X03872Y0095*
X03871Y0095*
X0387Y0095*
X0387*
X0387Y0095*
X0387Y0095*
X0387Y0095*
X03869Y00951*
X03869Y00951*
X03869Y00951*
X03868Y00952*
X03868Y00952*
X03868Y00953*
X03868Y00953*
X03867Y00953*
X03867Y00953*
X03867Y00954*
X03867Y00954*
X03867Y00955*
X03867Y00956*
Y00956*
Y00956*
X03867Y00956*
X03867Y00957*
X03867Y00957*
X03867Y00958*
X03867Y00958*
X03868Y00959*
X03868Y00959*
X03868Y00959*
X03868Y00959*
X03868Y0096*
X03869Y0096*
X03869Y0096*
X0387Y00961*
X0387Y00961*
X0387*
X0387Y00961*
X0387Y00961*
X0387Y00961*
X03869Y00961*
X03869Y00962*
X03868Y00962*
X03868Y00962*
X03867Y00963*
X03867Y00963*
X03867Y00963*
X03867Y00964*
X03866Y00964*
X03866Y00964*
X03866Y00965*
X03866Y00966*
X03866Y00966*
X03865Y00967*
Y00967*
Y00968*
X03866Y00968*
X03866Y00968*
X03866Y00969*
X03866Y00969*
X03866Y0097*
X03866Y00971*
X03866Y00971*
X03866Y00971*
X03867Y00971*
X03867Y00971*
X03867Y00972*
X03867Y00972*
X03868Y00973*
X03868Y00973*
X03868Y00973*
X03868Y00973*
X03869Y00973*
X03869Y00973*
X03869Y00974*
X0387Y00974*
X0387Y00974*
X03871Y00974*
X03871*
X03871Y00974*
X03872Y00974*
X03872Y00974*
X03873Y00974*
X03873Y00974*
X03874Y00975*
X03885*
Y00949*
G37*
G36*
X03914Y00956D02*
X03911D01*
Y00959*
X03911Y00959*
X03911Y00959*
X03911Y00959*
X03911Y00958*
X03911Y00958*
X03911Y00958*
X0391Y00958*
X0391Y00957*
X03909Y00957*
X03909Y00957*
X03909Y00956*
X03908Y00956*
X03908Y00956*
X03907Y00956*
X03906Y00956*
X03906Y00956*
X03905*
X03905Y00956*
X03905Y00956*
X03904Y00956*
X03904Y00956*
X03903Y00956*
X03903Y00956*
X03902Y00956*
X03902Y00957*
X03902Y00957*
X03902Y00957*
X03901Y00957*
X03901Y00957*
X03901Y00958*
X039Y00958*
X039Y00958*
X039Y00958*
X039Y00958*
X039Y00959*
X039Y00959*
X039Y00959*
X039Y0096*
X039Y0096*
Y0096*
X03899Y0096*
X03899Y00961*
X03899Y00961*
Y00961*
X03899Y00962*
X03899Y00963*
Y00963*
Y00975*
X03902*
Y00963*
Y00963*
Y00963*
Y00963*
Y00963*
X03902Y00962*
X03903Y00962*
X03903Y00961*
X03903Y00961*
X03903Y00961*
Y00961*
X03903Y0096*
X03903Y0096*
X03903Y0096*
X03903Y0096*
X03904Y0096*
X03904Y00959*
X03904Y00959*
X03904Y00959*
X03904Y00959*
X03904Y00959*
X03905Y00959*
X03905Y00959*
X03905Y00959*
X03906Y00959*
X03906Y00958*
X03907*
X03907Y00959*
X03907Y00959*
X03908Y00959*
X03908Y00959*
X03909Y00959*
X0391Y0096*
X0391Y0096*
X0391Y0096*
X0391Y0096*
X0391Y00961*
X0391Y00961*
X0391Y00961*
X03911Y00961*
X03911Y00962*
X03911Y00962*
X03911Y00963*
X03911Y00963*
X03911Y00964*
Y00965*
Y00975*
X03914*
Y00956*
G37*
G36*
X03787Y00949D02*
X03784D01*
X03777Y00968*
Y00968*
X03777Y00968*
X03777Y00968*
X03777Y00968*
X03777Y00968*
X03777Y00969*
X03776Y0097*
X03776Y0097*
X03776Y00972*
Y00972*
X03776Y00972*
X03776Y00972*
X03776Y00971*
X03775Y00971*
X03775Y0097*
X03775Y0097*
X03775Y00969*
X03775Y00968*
X03774Y00968*
X03767Y00949*
X03764*
X03774Y00975*
X03777*
X03787Y00949*
G37*
G36*
X03972Y00975D02*
X03972Y00975D01*
X03973Y00975*
X03973Y00975*
X03973Y00975*
X03974Y00974*
X03975Y00974*
X03975Y00974*
X03976Y00974*
X03977Y00973*
X03977Y00973*
X03977Y00972*
X03978Y00972*
X03978Y00972*
X03978Y00972*
X03978Y00972*
X03978Y00972*
X03978Y00971*
X03978Y00971*
X03979Y00971*
X03979Y0097*
X03979Y0097*
X03979Y00969*
X03979Y00969*
X0398Y00968*
X0398Y00967*
X0398Y00966*
X0398Y00966*
Y00966*
Y00965*
Y00965*
X0398Y00965*
X0398Y00964*
X0398Y00964*
X0398Y00963*
X03979Y00963*
X03979Y00962*
X03979Y00961*
X03979Y00961*
X03979Y0096*
X03978Y00959*
X03978Y00959*
X03977Y00958*
X03977Y00958*
X03977Y00958*
X03977Y00958*
X03977Y00958*
X03977Y00958*
X03977Y00958*
X03976Y00957*
X03976Y00957*
X03975Y00957*
X03975Y00957*
X03974Y00956*
X03974Y00956*
X03973Y00956*
X03973Y00956*
X03972Y00956*
X03971Y00956*
X03971*
X03971Y00956*
X0397Y00956*
X0397Y00956*
X0397Y00956*
X03969Y00956*
X03968Y00956*
X03968Y00957*
X03967Y00957*
X03967Y00957*
X03966Y00957*
X03966Y00958*
X03965Y00958*
X03965Y00958*
X03965Y00958*
X03965Y00959*
X03965Y00959*
X03965Y00959*
X03965Y00959*
X03964Y0096*
X03964Y0096*
X03964Y00961*
X03964Y00961*
X03964Y00962*
X03963Y00962*
X03963Y00963*
X03963Y00964*
X03963Y00965*
X03963Y00965*
Y00965*
Y00966*
Y00966*
X03963Y00966*
X03977*
Y00966*
Y00966*
X03977Y00966*
Y00967*
X03977Y00967*
X03977Y00967*
X03976Y00968*
X03976Y00969*
X03976Y00969*
X03975Y0097*
X03975Y00971*
X03975Y00971*
X03975Y00971*
X03974Y00971*
X03974Y00972*
X03973Y00972*
X03973Y00972*
X03972Y00972*
X03971Y00972*
X03971*
X03971Y00972*
X0397Y00972*
X0397Y00972*
X03969Y00972*
X03969Y00972*
X03968Y00972*
X03968Y00971*
X03968Y00971*
X03968Y00971*
X03968Y00971*
X03967Y0097*
X03967Y0097*
X03967Y00969*
X03966Y00969*
X03963Y00969*
Y00969*
X03963Y00969*
X03963Y00969*
X03963Y00969*
X03963Y0097*
X03963Y0097*
X03964Y00971*
X03964Y00971*
X03965Y00972*
X03965Y00973*
X03966Y00973*
X03966*
X03966Y00973*
X03966Y00974*
X03966Y00974*
X03966Y00974*
X03967Y00974*
X03967Y00974*
X03967Y00974*
X03968Y00974*
X03969Y00975*
X0397Y00975*
X03971Y00975*
X03972*
X03972Y00975*
G37*
G36*
X03942Y00956D02*
X03938D01*
Y00975*
X03942*
Y00956*
G37*
G36*
Y00949D02*
X03938D01*
Y00953*
X03942*
Y00949*
G37*
G36*
X03992Y00975D02*
X03992Y00975D01*
X03993Y00975*
X03994Y00975*
X03994Y00974*
X03995Y00974*
X03996Y00974*
X03996*
X03996Y00974*
X03996Y00974*
X03996Y00973*
X03997Y00973*
X03997Y00972*
X03998Y00972*
X03998Y00971*
X03999Y0097*
Y0097*
X03999Y0097*
X03999Y0097*
X03999Y0097*
X03999Y0097*
X03999Y0097*
X03999Y00969*
X03999Y00968*
X03999Y00967*
X03999Y00966*
X04Y00965*
Y00965*
Y00965*
Y00965*
Y00965*
X03999Y00965*
Y00964*
X03999Y00964*
X03999Y00963*
X03999Y00962*
X03999Y00961*
X03999Y0096*
Y0096*
X03999Y0096*
X03999Y0096*
X03998Y0096*
X03998Y0096*
X03998Y00959*
X03998Y00959*
X03997Y00958*
X03997Y00957*
X03996Y00957*
X03996*
X03996Y00957*
X03996Y00957*
X03995Y00957*
X03995Y00956*
X03994Y00956*
X03993Y00956*
X03993Y00956*
X03992Y00956*
X03992*
X03991Y00956*
X03991Y00956*
X0399Y00956*
X0399Y00956*
X03989Y00956*
X03989Y00957*
X03989Y00957*
X03989Y00957*
X03988Y00957*
X03988Y00957*
X03988Y00957*
X03987Y00958*
X03987Y00958*
X03987Y00958*
Y00949*
X03984*
Y00975*
X03987*
Y00972*
X03987Y00972*
X03987Y00972*
X03987Y00972*
X03987Y00973*
X03987Y00973*
X03987Y00973*
X03988Y00973*
X03988Y00974*
X03988Y00974*
X03989Y00974*
X03989Y00974*
X03989Y00975*
X0399Y00975*
X0399Y00975*
X03991Y00975*
X03992Y00975*
X03992*
X03992Y00975*
G37*
G36*
X03928Y00982D02*
X03928D01*
X03928Y00982*
X03929Y00982*
X0393Y00982*
X03931Y00981*
X03932Y00981*
X03932Y0098*
X03932*
X03932Y0098*
X03933Y0098*
X03933Y0098*
X03933Y00979*
X03934Y00979*
X03934Y00978*
X03934Y00977*
X03934Y00977*
Y00976*
X03931Y00976*
Y00977*
X03931Y00977*
X03931Y00977*
X03931Y00977*
X03931Y00978*
X03931Y00978*
X03931Y00978*
X0393Y00978*
X0393Y00978*
X0393Y00979*
X0393Y00979*
X03929Y00979*
X03929Y00979*
X03928Y00979*
X03928Y00979*
X03927Y00979*
X03927*
X03926Y00979*
X03926Y00979*
X03925Y00979*
X03925Y00979*
X03924Y00979*
X03924Y00978*
X03924Y00978*
X03924Y00978*
X03923Y00978*
X03923Y00978*
X03923Y00977*
X03923Y00977*
X03922Y00977*
X03922Y00976*
Y00976*
X03922Y00976*
X03922Y00976*
X03922Y00975*
X03922Y00975*
Y00974*
X03922Y00974*
Y00974*
Y00973*
Y00973*
Y00972*
X03922Y00972*
X03922Y00972*
X03922Y00972*
X03922Y00973*
X03923Y00973*
X03923Y00973*
X03923Y00973*
X03924Y00974*
X03925Y00974*
X03925Y00974*
X03926Y00974*
X03927Y00974*
X03927Y00975*
X03927*
X03928Y00974*
X03928Y00974*
X03928Y00974*
X03929Y00974*
X03929Y00974*
X0393Y00974*
X0393Y00974*
X03931Y00974*
X03931Y00973*
X03932Y00973*
X03932Y00973*
X03932Y00972*
X03933Y00972*
X03933Y00972*
X03933Y00972*
X03933Y00972*
X03933Y00971*
X03933Y00971*
X03934Y00971*
X03934Y0097*
X03934Y0097*
X03934Y0097*
X03934Y00969*
X03934Y00968*
X03935Y00968*
X03935Y00967*
X03935Y00966*
X03935Y00965*
Y00965*
Y00965*
Y00965*
Y00965*
X03935Y00965*
Y00964*
X03935Y00964*
X03935Y00963*
X03935Y00962*
X03934Y00961*
X03934Y0096*
Y0096*
X03934Y0096*
X03934Y0096*
X03934Y0096*
X03934Y0096*
X03933Y00959*
X03933Y00959*
X03932Y00958*
X03932Y00958*
X03931Y00957*
X03931*
X03931Y00957*
X03931Y00957*
X03931Y00957*
X03931Y00957*
X0393Y00956*
X03929Y00956*
X03929Y00956*
X03928Y00956*
X03927Y00956*
X03927*
X03927Y00956*
X03926Y00956*
X03926Y00956*
X03925Y00956*
X03925Y00956*
X03924Y00956*
X03924Y00957*
X03923Y00957*
X03923Y00957*
X03923Y00958*
X03922Y00958*
X03922Y00958*
Y00956*
X03919*
Y00972*
Y00972*
Y00972*
Y00972*
Y00973*
X03919Y00973*
Y00973*
X03919Y00974*
X03919Y00974*
X03919Y00975*
X03919Y00976*
X03919Y00977*
X0392Y00978*
X0392Y00978*
Y00978*
X0392Y00978*
X0392Y00978*
X0392Y00979*
X0392Y00979*
X03921Y0098*
X03921Y0098*
X03922Y0098*
X03922Y00981*
X03923*
X03923Y00981*
X03923Y00981*
X03923Y00981*
X03923Y00981*
X03924Y00981*
X03924Y00982*
X03925Y00982*
X03926Y00982*
X03927Y00982*
X03927*
X03928Y00982*
G37*
G36*
X0386D02*
X0386D01*
X0386Y00982*
X03861Y00982*
X03861Y00982*
X03862Y00979*
X03862*
X03862Y00979*
X03861Y00979*
X03861Y00979*
X03861Y00979*
X0386Y00979*
X0386*
X0386Y00979*
X03859*
X03859Y00979*
X03859Y00979*
X03858Y00979*
X03858*
X03858Y00979*
X03858Y00978*
X03858Y00978*
X03858Y00978*
X03857Y00978*
Y00978*
X03857Y00977*
X03857Y00977*
X03857Y00977*
X03857Y00977*
X03857Y00976*
X03857Y00976*
X03856Y00975*
X03856Y00975*
X03856Y00975*
X03856Y00975*
X03856Y00975*
X03863Y00956*
X0386*
X03856Y00967*
Y00967*
X03856Y00967*
X03856Y00967*
X03856Y00967*
X03856Y00968*
X03855Y00968*
X03855Y00969*
X03855Y00969*
X03855Y0097*
X03855Y00971*
Y00971*
X03855Y00971*
Y00971*
X03854Y00971*
X03854Y0097*
X03854Y0097*
X03854Y00969*
X03854Y00968*
X03854Y00968*
X03853Y00967*
X03849Y00956*
X03846*
X03853Y00975*
Y00975*
X03853Y00975*
X03853Y00975*
X03853Y00975*
X03854Y00976*
X03854Y00976*
X03854Y00976*
X03854Y00977*
X03854Y00978*
X03855Y00978*
X03855Y00979*
X03855Y00979*
X03855Y00979*
X03855Y00979*
X03855Y00979*
X03856Y0098*
X03856Y0098*
X03856Y00981*
X03857Y00981*
X03857Y00981*
X03857Y00981*
X03857Y00981*
X03857Y00981*
X03858Y00982*
X03858Y00982*
X03858Y00982*
X03859Y00982*
X03859Y00982*
X0386*
X0386Y00982*
G37*
G36*
X03825Y00975D02*
X03825D01*
X03825Y00975*
X03826Y00975*
X03827Y00975*
X03828Y00975*
X03829Y00974*
X0383Y00974*
X0383*
X0383Y00974*
X0383Y00974*
X0383Y00974*
X0383Y00974*
X03831Y00973*
X03832Y00973*
X03832Y00972*
X03833Y00972*
X03833Y00971*
Y00971*
X03833Y00971*
X03833Y00971*
X03833Y00971*
X03834Y0097*
X03834Y0097*
X03834Y0097*
X03834Y00969*
X03834Y00968*
X03835Y00967*
X03835Y00966*
X03831Y00966*
Y00966*
Y00966*
X03831Y00966*
X03831Y00967*
X03831Y00967*
X03831Y00968*
X03831Y00968*
X03831Y00969*
X0383Y00969*
X0383Y00969*
X0383Y00969*
X0383Y0097*
X0383Y0097*
X03829Y0097*
X03829Y00971*
X03828Y00971*
X03828Y00971*
X03828*
X03828Y00971*
X03828Y00971*
X03827Y00971*
X03827Y00972*
X03826Y00972*
X03826Y00972*
X03825Y00972*
X03824Y00972*
X03824*
X03823Y00972*
X03823Y00972*
X03822Y00972*
X03822Y00972*
X03821Y00972*
X03821Y00971*
X03821Y00971*
X0382Y00971*
X0382Y00971*
X0382Y00971*
X03819Y00971*
X03819Y00971*
X03819Y0097*
X03818Y0097*
X03818Y0097*
X03818Y0097*
X03818Y00969*
X03818Y00969*
X03818Y00969*
X03818Y00969*
X03818Y00968*
X03818Y00968*
Y00968*
Y00968*
X03818Y00967*
X03818Y00967*
X03818Y00967*
X03818Y00966*
X03818Y00966*
X03818Y00966*
X03818Y00966*
X03819Y00965*
X03819Y00965*
X03819Y00965*
X03819Y00965*
X0382Y00965*
X0382Y00964*
X03821Y00964*
X03821Y00964*
X03821Y00964*
X03821Y00964*
X03821Y00964*
X03822Y00964*
X03822Y00964*
X03822Y00964*
X03823Y00964*
X03823Y00963*
X03823Y00963*
X03824Y00963*
X03825Y00963*
X03825Y00963*
X03825*
X03825Y00963*
X03826Y00963*
X03826Y00963*
X03826Y00963*
X03826Y00963*
X03827Y00962*
X03828Y00962*
X03829Y00962*
X03829Y00962*
X0383Y00961*
X0383Y00961*
X0383*
X0383Y00961*
X0383Y00961*
X03831Y00961*
X03831Y00961*
X03832Y0096*
X03832Y0096*
X03832Y00959*
X03833Y00959*
X03833Y00959*
X03833Y00959*
X03833Y00958*
X03833Y00958*
X03833Y00958*
X03833Y00957*
X03834Y00956*
X03834Y00956*
Y00956*
Y00956*
Y00956*
Y00955*
X03834Y00955*
X03833Y00955*
X03833Y00954*
X03833Y00954*
X03833Y00953*
X03833Y00952*
Y00952*
X03833Y00952*
X03832Y00952*
X03832Y00952*
X03832Y00951*
X03831Y00951*
X03831Y00951*
X0383Y0095*
X03829Y0095*
X03829*
X03829Y0095*
X03829Y0095*
X03829Y0095*
X03829Y0095*
X03829Y00949*
X03828Y00949*
X03827Y00949*
X03827Y00949*
X03826Y00949*
X03825Y00949*
X03824*
X03824Y00949*
X03824*
X03823Y00949*
X03822Y00949*
X03822Y00949*
X03821Y00949*
X0382Y0095*
X0382*
X0382Y0095*
X0382Y0095*
X0382Y0095*
X03819Y0095*
X03819Y0095*
X03818Y00951*
X03818Y00951*
X03817Y00952*
X03817Y00952*
X03817Y00953*
X03816Y00953*
X03816Y00953*
X03816Y00954*
X03816Y00954*
X03816Y00955*
X03815Y00956*
X03815Y00956*
X03818Y00957*
Y00957*
Y00956*
X03819Y00956*
X03819Y00956*
X03819Y00956*
X03819Y00955*
X03819Y00955*
X03819Y00954*
X0382Y00954*
X0382Y00953*
X0382Y00953*
X03821Y00953*
X03821Y00953*
X03821Y00952*
X03822Y00952*
X03823Y00952*
X03824Y00952*
X03825Y00952*
X03825*
X03825Y00952*
X03826*
X03826Y00952*
X03827Y00952*
X03828Y00952*
X03828Y00953*
X03829Y00953*
X03829Y00953*
X03829Y00953*
X03829Y00953*
X03829Y00953*
X0383Y00954*
X0383Y00954*
X0383Y00955*
X0383Y00955*
X0383Y00956*
Y00956*
Y00956*
X0383Y00956*
X0383Y00956*
X0383Y00957*
X0383Y00957*
X0383Y00957*
X03829Y00958*
X03829Y00958*
X03829Y00958*
X03829Y00958*
X03829Y00958*
X03829Y00958*
X03828Y00958*
X03828Y00959*
X03828Y00959*
X03827Y00959*
X03827Y00959*
X03826Y00959*
X03826Y00959*
X03825Y00959*
X03824Y0096*
X03824*
X03824Y0096*
X03824Y0096*
X03824Y0096*
X03823Y0096*
X03823Y0096*
X03822Y0096*
X03821Y0096*
X0382Y00961*
X0382Y00961*
X0382Y00961*
X03819Y00961*
X03819Y00961*
X03819*
X03819Y00961*
X03819Y00961*
X03818Y00961*
X03818Y00962*
X03818Y00962*
X03817Y00962*
X03817Y00963*
X03816Y00963*
X03816Y00964*
X03816Y00964*
X03815Y00964*
X03815Y00964*
X03815Y00965*
X03815Y00965*
X03815Y00966*
X03815Y00967*
X03815Y00967*
Y00967*
Y00967*
Y00968*
Y00968*
X03815Y00968*
X03815Y00969*
X03815Y00969*
X03815Y0097*
X03815Y00971*
X03816Y00971*
X03816Y00971*
X03816Y00972*
X03816Y00972*
X03817Y00972*
X03817Y00973*
X03818Y00973*
X03818Y00974*
X03819Y00974*
X03819*
X03819Y00974*
X03819Y00974*
X03819Y00974*
X0382Y00974*
X0382Y00974*
X0382Y00974*
X03821Y00975*
X03822Y00975*
X03823Y00975*
X03824Y00975*
X03824*
X03825Y00975*
G37*
G36*
X0381Y00949D02*
X03798D01*
X03798Y00949*
X03798*
X03797Y00949*
X03796Y00949*
X03795Y0095*
X03794Y0095*
X03794Y0095*
X03794Y0095*
X03794*
X03794Y0095*
X03793Y0095*
X03793Y0095*
X03793Y00951*
X03792Y00951*
X03792Y00951*
X03791Y00952*
X03791Y00952*
X03791Y00952*
X03791Y00953*
X0379Y00953*
X0379Y00953*
X0379Y00954*
X0379Y00955*
X0379Y00955*
X0379Y00956*
Y00956*
Y00956*
Y00956*
X0379Y00957*
Y00957*
X0379Y00957*
X0379Y00958*
X0379Y00958*
X0379Y00959*
X03791Y0096*
X03791Y0096*
X03792Y00961*
X03792Y00961*
X03792Y00961*
X03792Y00961*
X03792Y00961*
X03792Y00961*
X03793Y00961*
X03793Y00962*
X03793Y00962*
X03794Y00962*
X03794Y00962*
X03795Y00962*
X03795Y00963*
X03796Y00963*
X03796Y00963*
X03797Y00963*
X03797Y00963*
X03797Y00963*
X03796Y00963*
X03796Y00963*
X03795Y00964*
X03795Y00964*
X03795Y00964*
X03795Y00964*
X03795Y00965*
X03794Y00965*
X03794Y00965*
X03794Y00966*
X03793Y00966*
X03793Y00967*
X03792Y00968*
X03788Y00975*
X03792*
X03795Y00969*
Y00969*
X03795Y00969*
X03795Y00969*
X03795Y00969*
X03796Y00969*
X03796Y00968*
X03796Y00967*
X03797Y00967*
X03797Y00966*
X03798Y00966*
X03798Y00966*
X03798Y00966*
X03798Y00965*
X03798Y00965*
X03799Y00965*
X03799Y00964*
X03799Y00964*
X03799Y00964*
X03799Y00964*
X038Y00964*
X038Y00964*
X038Y00964*
X03801Y00963*
X03801*
X03801Y00963*
X03801*
X03801Y00963*
X03802Y00963*
X03802*
X03802Y00963*
X03807*
Y00975*
X0381*
Y00949*
G37*
G36*
X03953Y00975D02*
X03954D01*
X03954Y00975*
X03955Y00975*
X03956Y00975*
X03956Y00974*
X03957Y00974*
X03958Y00974*
X03958Y00973*
X03958*
X03958Y00973*
X03958Y00973*
X03959Y00973*
X03959Y00972*
X03959Y00972*
X0396Y00971*
X0396Y0097*
X0396Y00969*
X03957Y00969*
Y00969*
Y00969*
X03957Y00969*
X03957Y00969*
X03957Y0097*
X03957Y0097*
X03957Y00971*
X03956Y00971*
X03956Y00971*
X03956Y00971*
X03956Y00972*
X03955Y00972*
X03955Y00972*
X03955Y00972*
X03954Y00972*
X03953Y00972*
X03953Y00972*
X03952*
X03952Y00972*
X03951Y00972*
X03951Y00972*
X0395Y00972*
X0395Y00972*
X03949Y00972*
X03949Y00972*
X03949Y00971*
X03949Y00971*
X03949Y00971*
X03949Y00971*
X03949Y0097*
X03948Y0097*
X03948Y00969*
Y00969*
Y00969*
X03948Y00969*
X03949Y00969*
X03949Y00969*
X03949Y00968*
X03949Y00968*
X03949Y00968*
X03949Y00968*
X0395Y00968*
X0395Y00968*
X0395Y00968*
X0395Y00967*
X03951Y00967*
X03951Y00967*
X03952Y00967*
X03952Y00967*
X03953Y00967*
X03953*
X03953Y00967*
X03953Y00967*
X03953Y00967*
X03953Y00967*
X03954Y00966*
X03954Y00966*
X03955Y00966*
X03956Y00966*
X03957Y00966*
X03957Y00965*
X03957Y00965*
X03957Y00965*
X03958Y00965*
X03958Y00965*
X03958Y00965*
X03958Y00965*
X03959Y00964*
X03959Y00964*
X03959Y00964*
X03959Y00964*
X03959Y00963*
X03959Y00963*
X0396Y00963*
X0396Y00962*
X0396Y00962*
X0396Y00962*
X0396Y00961*
Y00961*
Y00961*
X0396Y00961*
X0396Y0096*
X0396Y0096*
X0396Y0096*
X0396Y00959*
X03959Y00959*
X03959Y00959*
X03959Y00959*
X03959Y00958*
X03959Y00958*
X03959Y00958*
X03959Y00958*
X03958Y00957*
X03958Y00957*
X03958Y00957*
X03958Y00957*
X03958Y00957*
X03957Y00957*
X03957Y00957*
X03957Y00956*
X03956Y00956*
X03956Y00956*
X03956*
X03956Y00956*
X03955Y00956*
X03955Y00956*
X03955Y00956*
X03954Y00956*
X03954Y00956*
X03953*
X03952Y00956*
X03952Y00956*
X03951Y00956*
X03951Y00956*
X0395Y00956*
X03949Y00956*
X03949*
X03949Y00956*
X03949Y00957*
X03949Y00957*
X03949Y00957*
X03948Y00957*
X03948Y00957*
X03947Y00958*
X03947Y00958*
X03947Y00958*
X03947Y00958*
X03947Y00959*
X03947Y00959*
X03946Y00959*
X03946Y0096*
X03946Y0096*
X03946Y00961*
X03949Y00961*
Y00961*
X03949Y00961*
X03949Y00961*
X03949Y00961*
X03949Y0096*
X0395Y0096*
X0395Y00959*
X0395Y00959*
X0395Y00959*
X0395Y00959*
X03951Y00959*
X03951Y00959*
X03951Y00959*
X03952Y00958*
X03952Y00958*
X03953Y00958*
X03953*
X03954Y00958*
X03954Y00958*
X03955Y00959*
X03955Y00959*
X03956Y00959*
X03956Y00959*
X03956Y00959*
X03956Y00959*
X03956Y00959*
X03956Y0096*
X03957Y0096*
X03957Y0096*
X03957Y0096*
X03957Y00961*
Y00961*
Y00961*
X03957Y00961*
Y00961*
X03957Y00961*
X03957Y00962*
X03957Y00962*
X03957Y00962*
X03956Y00962*
X03956Y00962*
X03956Y00962*
X03956Y00963*
X03955Y00963*
X03955*
X03955Y00963*
X03955Y00963*
X03955Y00963*
X03955Y00963*
X03954Y00963*
X03953Y00963*
X03953Y00963*
X03953Y00963*
X03953*
X03953Y00963*
X03952Y00964*
X03952Y00964*
X03952Y00964*
X03952Y00964*
X03951Y00964*
X0395Y00964*
X03949Y00964*
X03949Y00965*
X03948Y00965*
X03948Y00965*
X03948Y00965*
X03948Y00965*
X03948Y00965*
X03947Y00965*
X03947Y00966*
X03947Y00966*
X03946Y00966*
X03946Y00967*
X03946Y00967*
X03946Y00967*
X03946Y00967*
X03946Y00967*
X03945Y00968*
X03945Y00968*
X03945Y00969*
X03945Y00969*
Y00969*
Y00969*
X03945Y0097*
X03945Y0097*
X03945Y00971*
X03946Y00971*
X03946Y00972*
X03946Y00972*
X03946Y00972*
X03946Y00972*
X03947Y00973*
X03947Y00973*
X03947Y00973*
X03948Y00974*
X03948Y00974*
X03949Y00974*
X03949Y00974*
X03949Y00974*
X03949Y00974*
X0395Y00975*
X03951Y00975*
X03951Y00975*
X03952Y00975*
X03953Y00975*
X03953*
X03953Y00975*
G37*
%LNqudruped_nano-2*%
%LPC*%
G36*
X03881Y0096D02*
X03875D01*
X03875Y0096*
X03874Y0096*
X03873Y0096*
X03873Y0096*
X03873Y0096*
X03873Y0096*
X03872Y0096*
X03872Y00959*
X03872Y00959*
X03872Y00959*
X03871Y00959*
X03871Y00959*
X03871Y00958*
X03871Y00958*
X03871Y00958*
X0387Y00958*
X0387Y00958*
X0387Y00957*
X0387Y00957*
X0387Y00957*
X0387Y00956*
Y00956*
Y00956*
X0387Y00956*
X0387Y00955*
X0387Y00955*
X0387Y00955*
X0387Y00954*
X03871Y00954*
X03871Y00954*
X03871Y00954*
X03871Y00954*
X03871Y00953*
X03871Y00953*
X03872Y00953*
X03872Y00953*
X03872Y00953*
X03872*
X03873Y00953*
X03873Y00953*
X03873Y00952*
X03874Y00952*
X03874Y00952*
X03875Y00952*
X03881*
Y0096*
G37*
G36*
Y00972D02*
X03874D01*
X03873Y00972*
X03873Y00971*
X03873Y00971*
X03873*
X03872Y00971*
X03872Y00971*
X03872Y00971*
X03871Y00971*
X03871Y00971*
X03871Y00971*
X03871Y00971*
X0387Y00971*
X0387Y0097*
X0387Y0097*
X0387Y0097*
X0387Y0097*
X03869Y00969*
X03869Y00969*
X03869Y00969*
X03869Y00969*
X03869Y00969*
X03869Y00968*
X03869Y00968*
X03869Y00968*
X03869Y00967*
Y00967*
Y00967*
X03869Y00967*
X03869Y00966*
X03869Y00966*
X03869Y00966*
X03869Y00965*
X0387Y00965*
X0387Y00965*
X0387Y00965*
X0387Y00964*
X0387Y00964*
X03871Y00964*
X03871Y00964*
X03871Y00963*
X03872Y00963*
X03872Y00963*
X03872Y00963*
X03872Y00963*
X03873Y00963*
X03873Y00963*
X03874Y00963*
X03875Y00963*
X03881*
Y00972*
G37*
G36*
X03976Y00964D02*
X03966D01*
Y00964*
Y00964*
X03966Y00963*
Y00963*
X03966Y00963*
X03966Y00962*
X03967Y00962*
X03967Y00961*
X03967Y00961*
X03967Y0096*
Y0096*
X03968Y0096*
X03968Y0096*
X03968Y0096*
X03968Y00959*
X03969Y00959*
X0397Y00959*
X0397Y00958*
X03971Y00958*
X03971Y00958*
X03971*
X03972Y00958*
X03972Y00958*
X03973Y00959*
X03973Y00959*
X03974Y00959*
X03974Y00959*
X03975Y0096*
X03975Y0096*
X03975Y0096*
X03975Y0096*
X03976Y00961*
X03976Y00961*
X03976Y00962*
X03976Y00963*
X03976Y00964*
G37*
G36*
X03991Y00972D02*
X03991D01*
X03991Y00972*
X03991Y00972*
X0399Y00972*
X0399Y00972*
X03989Y00972*
X03988Y00971*
X03988Y00971*
X03988Y00971*
Y00971*
X03988Y00971*
X03988Y00971*
X03988Y0097*
X03988Y0097*
X03987Y0097*
X03987Y0097*
X03987Y00969*
X03987Y00969*
X03987Y00969*
X03987Y00968*
X03987Y00968*
X03987Y00967*
X03987Y00967*
X03986Y00966*
Y00966*
Y00966*
Y00966*
Y00965*
X03987Y00965*
Y00965*
X03987Y00964*
X03987Y00964*
X03987Y00963*
X03987Y00962*
X03987Y00961*
X03988Y0096*
X03988Y0096*
Y0096*
X03988Y0096*
X03988Y0096*
X03989Y0096*
X03989Y00959*
X03989Y00959*
X0399Y00959*
X03991Y00958*
X03991Y00958*
X03992*
X03992Y00958*
X03992Y00958*
X03993Y00959*
X03993Y00959*
X03994Y00959*
X03994Y00959*
X03995Y0096*
X03995Y0096*
X03995Y0096*
X03995Y0096*
X03995Y0096*
X03995Y00961*
X03995Y00961*
X03996Y00961*
X03996Y00961*
X03996Y00962*
X03996Y00962*
X03996Y00963*
X03996Y00963*
X03996Y00964*
X03996Y00964*
X03996Y00965*
Y00965*
Y00965*
Y00966*
Y00966*
X03996Y00966*
Y00966*
X03996Y00967*
X03996Y00967*
X03996Y00968*
X03996Y00969*
X03995Y0097*
X03995Y0097*
X03995Y00971*
X03995Y00971*
X03995Y00971*
X03994Y00971*
X03994Y00972*
X03993Y00972*
X03993Y00972*
X03992Y00972*
X03992Y00972*
X03991Y00972*
G37*
G36*
X03927Y00972D02*
X03927D01*
X03926Y00972*
X03926Y00972*
X03926Y00972*
X03925Y00972*
X03924Y00971*
X03924Y00971*
X03923Y0097*
Y0097*
X03923Y0097*
X03923Y0097*
X03923Y0097*
X03923Y0097*
X03923Y0097*
X03923Y00969*
X03922Y00969*
X03922Y00969*
X03922Y00968*
X03922Y00968*
X03922Y00967*
X03922Y00967*
X03922Y00966*
X03922Y00966*
Y00965*
Y00965*
Y00965*
Y00965*
X03922Y00965*
Y00964*
X03922Y00964*
X03922Y00963*
X03922Y00962*
X03922Y00962*
X03923Y00961*
X03923Y0096*
X03923Y0096*
Y0096*
X03923Y0096*
X03924Y0096*
X03924Y0096*
X03924Y00959*
X03925Y00959*
X03925Y00959*
X03926Y00958*
X03926Y00958*
X03927*
X03927Y00958*
X03928Y00958*
X03928Y00959*
X03929Y00959*
X03929Y00959*
X0393Y00959*
X0393Y0096*
X0393Y0096*
X0393Y0096*
X0393Y0096*
X03931Y0096*
X03931Y00961*
X03931Y00961*
X03931Y00961*
X03931Y00961*
X03931Y00962*
X03931Y00962*
X03931Y00962*
X03932Y00963*
X03932Y00964*
X03932Y00965*
Y00965*
Y00965*
Y00965*
X03932Y00966*
Y00966*
X03932Y00966*
X03932Y00967*
X03931Y00968*
X03931Y00969*
X03931Y0097*
X03931Y0097*
X0393Y0097*
X0393Y0097*
X0393Y00971*
X0393Y00971*
X03929Y00971*
X03929Y00971*
X03928Y00972*
X03928Y00972*
X03927Y00972*
X03927Y00972*
G37*
G36*
X03807Y0096D02*
X03799D01*
X03799Y0096*
X03798Y0096*
X03798Y0096*
X03797Y0096*
X03796Y0096*
X03796Y0096*
X03796Y0096*
X03796Y0096*
X03795Y0096*
X03795Y0096*
X03795Y00959*
X03794Y00959*
X03794Y00959*
X03794Y00958*
X03794Y00958*
X03794Y00958*
X03794Y00958*
X03794Y00958*
X03793Y00957*
X03793Y00957*
X03793Y00957*
X03793Y00956*
Y00956*
Y00956*
Y00956*
X03793Y00956*
X03793Y00955*
X03794Y00955*
X03794Y00954*
X03794Y00954*
X03795Y00953*
X03795Y00953*
X03795Y00953*
X03795Y00953*
X03796Y00953*
X03796Y00952*
X03797Y00952*
X03798Y00952*
X03799Y00952*
X03807*
Y0096*
G37*
%LNqudruped_nano-3*%
%LPD*%
G54D25*
X04757Y0214D02*
X04757Y0215D01*
X04756Y02159*
X04753Y02169*
X0475Y02179*
X04745Y02188*
X0474Y02196*
X04734Y02204*
X04728Y02212*
X0472Y02219*
X04712Y02225*
X04703Y0223*
X04694Y02234*
X04685Y02237*
X04675Y0224*
X04665Y02241*
X04655Y02242*
X04645Y02241*
X04635Y0224*
X04625Y02237*
X04616Y02234*
X04607Y0223*
X04598Y02225*
X0459Y02219*
X04583Y02212*
X04576Y02204*
X0457Y02196*
X04565Y02188*
X04561Y02179*
X04557Y02169*
X04555Y02159*
X04553Y0215*
X04553Y0214*
X04553Y02129*
X04555Y0212*
X04557Y0211*
X04561Y021*
X04565Y02091*
X0457Y02083*
X04576Y02075*
X04583Y02067*
X0459Y0206*
X04598Y02054*
X04607Y02049*
X04616Y02045*
X04625Y02042*
X04635Y02039*
X04645Y02038*
X04655Y02037*
X04665Y02038*
X04675Y02039*
X04685Y02042*
X04694Y02045*
X04703Y02049*
X04712Y02054*
X0472Y0206*
X04728Y02067*
X04734Y02075*
X0474Y02083*
X04745Y02091*
X0475Y021*
X04753Y0211*
X04756Y0212*
X04757Y02129*
X04757Y0214*
X05302Y02135D02*
X05301Y02145D01*
X053Y02154*
X05297Y02164*
X05294Y02174*
X0529Y02183*
X05285Y02191*
X05279Y02199*
X05272Y02207*
X05264Y02214*
X05256Y0222*
X05248Y02225*
X05239Y02229*
X05229Y02232*
X05219Y02235*
X0521Y02236*
X052Y02237*
X05189Y02236*
X0518Y02235*
X0517Y02232*
X0516Y02229*
X05151Y02225*
X05143Y0222*
X05135Y02214*
X05127Y02207*
X0512Y02199*
X05114Y02191*
X05109Y02183*
X05105Y02174*
X05102Y02164*
X05099Y02154*
X05098Y02145*
X05097Y02135*
X05098Y02124*
X05099Y02115*
X05102Y02105*
X05105Y02095*
X05109Y02086*
X05114Y02078*
X0512Y0207*
X05127Y02062*
X05135Y02055*
X05143Y02049*
X05151Y02044*
X0516Y0204*
X0517Y02037*
X0518Y02034*
X05189Y02033*
X052Y02032*
X0521Y02033*
X05219Y02034*
X05229Y02037*
X05239Y0204*
X05248Y02044*
X05256Y02049*
X05264Y02055*
X05272Y02062*
X05279Y0207*
X05285Y02078*
X0529Y02086*
X05294Y02095*
X05297Y02105*
X053Y02115*
X05301Y02124*
X05302Y02135*
X05022D02*
X05022Y02145D01*
X05021Y02154*
X05018Y02164*
X05015Y02174*
X0501Y02183*
X05005Y02191*
X04999Y02199*
X04993Y02207*
X04985Y02214*
X04977Y0222*
X04968Y02225*
X04959Y02229*
X0495Y02232*
X0494Y02235*
X0493Y02236*
X0492Y02237*
X0491Y02236*
X049Y02235*
X0489Y02232*
X04881Y02229*
X04872Y02225*
X04863Y0222*
X04855Y02214*
X04848Y02207*
X04841Y02199*
X04835Y02191*
X0483Y02183*
X04826Y02174*
X04822Y02164*
X0482Y02154*
X04818Y02145*
X04818Y02135*
X04818Y02124*
X0482Y02115*
X04822Y02105*
X04826Y02095*
X0483Y02086*
X04835Y02078*
X04841Y0207*
X04848Y02062*
X04855Y02055*
X04863Y02049*
X04872Y02044*
X04881Y0204*
X0489Y02037*
X049Y02034*
X0491Y02033*
X0492Y02032*
X0493Y02033*
X0494Y02034*
X0495Y02037*
X04959Y0204*
X04968Y02044*
X04977Y02049*
X04985Y02055*
X04993Y02062*
X04999Y0207*
X05005Y02078*
X0501Y02086*
X05015Y02095*
X05018Y02105*
X05021Y02115*
X05022Y02124*
X05022Y02135*
X0499Y01675D02*
X05399D01*
X0499D02*
Y01856D01*
X05399*
Y01675D02*
Y01856D01*
X0499Y01695D02*
X05399D01*
X0499Y01365D02*
X05399D01*
X0499D02*
Y01546D01*
X05399*
Y01365D02*
Y01546D01*
X0499Y01385D02*
X05399D01*
X0499Y01065D02*
X05399D01*
X0499D02*
Y01246D01*
X05399*
Y01065D02*
Y01246D01*
X0499Y01085D02*
X05399D01*
X0447Y0105D02*
X04879D01*
X0447D02*
Y01231D01*
X04879*
Y0105D02*
Y01231D01*
X0447Y0107D02*
X04879D01*
X0447Y01365D02*
X04879D01*
X0447D02*
Y01546D01*
X04879*
Y01365D02*
Y01546D01*
X0447Y01385D02*
X04879D01*
X0316Y02705D02*
X0326D01*
Y03305*
X0316D02*
X0326D01*
X0316Y02705D02*
Y03305D01*
X03394Y03039D02*
X04395D01*
X03394Y02854D02*
Y03082D01*
X04395*
Y02854D02*
Y03082D01*
X03394Y02854D02*
X04395D01*
X04429Y029D02*
X0463D01*
Y02857D02*
Y03085D01*
X04429Y02857D02*
X0463D01*
X04429D02*
Y03085D01*
X0463*
X04659Y029D02*
X0486D01*
Y02857D02*
Y03085D01*
X04659Y02857D02*
X0486D01*
X04659D02*
Y03085D01*
X0486*
X0447Y0168D02*
X04879D01*
X0447D02*
Y01861D01*
X04879*
Y0168D02*
Y01861D01*
X0447Y017D02*
X04879D01*
X029Y011D02*
X032D01*
Y012*
X029D02*
X032D01*
X029Y011D02*
Y012D01*
X03Y011D02*
Y012D01*
X029Y01225D02*
X032D01*
Y01325*
X029D02*
X032D01*
X029Y01225D02*
Y01325D01*
X03Y01225D02*
Y01325D01*
X029Y0135D02*
X032D01*
Y0145*
X029D02*
X032D01*
X029Y0135D02*
Y0145D01*
X03Y0135D02*
Y0145D01*
X029Y01476D02*
X032D01*
Y01576*
X029D02*
X032D01*
X029Y01476D02*
Y01576D01*
X03Y01476D02*
Y01576D01*
X029Y01601D02*
X032D01*
Y01701*
X029D02*
X032D01*
X029Y01601D02*
Y01701D01*
X03Y01601D02*
Y01701D01*
X029Y01727D02*
X032D01*
Y01827*
X029D02*
X032D01*
X029Y01727D02*
Y01827D01*
X03Y01727D02*
Y01827D01*
X029Y01852D02*
X032D01*
Y01952*
X029D02*
X032D01*
X029Y01852D02*
Y01952D01*
X03Y01852D02*
Y01952D01*
X029Y01978D02*
X032D01*
Y02078*
X029D02*
X032D01*
X029Y01978D02*
Y02078D01*
X03Y01978D02*
Y02078D01*
X029Y02103D02*
X032D01*
Y02203*
X029D02*
X032D01*
X029Y02103D02*
Y02203D01*
X03Y02103D02*
Y02203D01*
X029Y02229D02*
X032D01*
Y02329*
X029D02*
X032D01*
X029Y02229D02*
Y02329D01*
X03Y02229D02*
Y02329D01*
X029Y02354D02*
X032D01*
Y02454*
X029D02*
X032D01*
X029Y02354D02*
Y02454D01*
X03Y02354D02*
Y02454D01*
X029Y0248D02*
X032D01*
Y0258*
X029D02*
X032D01*
X029Y0248D02*
Y0258D01*
X03Y0248D02*
Y0258D01*
X03385Y0121D02*
X03485D01*
X03385Y0261D02*
X03485D01*
X03385Y0111D02*
X03485D01*
X03385D02*
Y01185D01*
Y0261*
X03485Y0111D02*
Y0261D01*
X04285Y0121D02*
X04385D01*
X04285Y0261D02*
X04385D01*
X04285Y0111D02*
X04385D01*
X04285D02*
Y01185D01*
Y0261*
X04385Y0111D02*
Y0261D01*
X03684Y03475D02*
X04085D01*
X03684Y03247D02*
Y03475D01*
Y03247D02*
X04085D01*
Y03475*
X03684Y0329D02*
X04085D01*
X04865Y03225D02*
Y03325D01*
X04265D02*
X04865D01*
X04265Y03225D02*
Y03325D01*
Y03225D02*
X04865D01*
G54D26*
X03113Y03417D02*
X03108Y03426D01*
X03102Y03433*
X03095Y03441*
X03087Y03447*
X03079Y03453*
X03071Y03459*
X03062Y03463*
X03053Y03467*
X03044Y0347*
X03034Y03472*
X03024Y03473*
X03014Y03474*
X03004Y03473*
X02994Y03472*
X02985Y0347*
X02975Y03467*
X02966Y03463*
X02957Y03458*
X02949Y03453*
X02941Y03447*
X02934Y0344*
X02927Y03433*
X02921Y03425*
X02916Y03416*
X02911Y03408*
X02907Y03398*
X02904Y03389*
X02902Y03379*
X02901Y03369*
X029Y0336*
X02901Y0335*
X02902Y0334*
X02904Y0333*
X02907Y03321*
X02911Y03311*
X02916Y03303*
X02921Y03294*
X02927Y03286*
X02934Y03279*
X02941Y03272*
X02949Y03266*
X02957Y03261*
X02966Y03256*
X02975Y03252*
X02985Y03249*
X02994Y03247*
X03004Y03246*
X03014Y03245*
X03024Y03246*
X03034Y03247*
X03044Y03249*
X03053Y03252*
X03062Y03256*
X03071Y0326*
X03079Y03266*
X03087Y03272*
X03095Y03278*
X03101Y03286*
X03108Y03293*
X03113Y03302*
X03113Y03302D02*
Y03417D01*
G54D27*
X0352Y0271D02*
X0425D01*
Y0101D02*
Y0271D01*
X03731Y0101D02*
X0425D01*
X0352D02*
X03731D01*
X0352D02*
Y0271D01*
X03731Y00931D02*
X04038D01*
X03731D02*
Y0101D01*
X04038Y0093D02*
Y01009D01*
G54D28*
X0538Y0316D02*
Y0356D01*
X0518Y0316D02*
X0538D01*
X0518D02*
Y0356D01*
X0538*
G54D29*
X02925Y02925D02*
X02995D01*
X02925Y03105D02*
X02995D01*
Y0306D02*
Y03105D01*
Y02925D02*
Y0297D01*
X02925Y0306D02*
Y03105D01*
Y02925D02*
Y0297D01*
X02985Y03D02*
Y0303D01*
X02935Y03D02*
Y0303D01*
G54D30*
X05042Y02696D02*
X05404D01*
Y02365D02*
Y02696D01*
X05042Y02365D02*
X05404D01*
X05042D02*
Y02696D01*
X0466Y02814D02*
X04686D01*
X04673Y02828D02*
Y02801D01*
X04726Y02834D02*
X04699D01*
Y02814*
X04713Y02821*
X04719*
X04726Y02814*
Y02801*
X04719Y02795*
X04706*
X04699Y02801*
X04766Y02828D02*
X04759Y02834D01*
X04746*
X04739Y02828*
Y02821*
X04746Y02814*
X04759*
X04766Y02808*
Y02801*
X04759Y02795*
X04746*
X04739Y02801*
X04615Y02314D02*
X04625Y02324D01*
X04644*
X04654Y02314*
Y02275*
X04644Y02265*
X04625*
X04615Y02275*
Y02314*
X04674Y02265D02*
Y02275D01*
X04684*
Y02265*
X04674*
X04724Y02314D02*
X04734Y02324D01*
X04754*
X04764Y02314*
Y02304*
X04754Y02294*
X04744*
X04754*
X04764Y02284*
Y02275*
X04754Y02265*
X04734*
X04724Y02275*
X04784Y02314D02*
X04794Y02324D01*
X04814*
X04824Y02314*
Y02304*
X04814Y02294*
X04804*
X04814*
X04824Y02284*
Y02275*
X04814Y02265*
X04794*
X04784Y02275*
X04844Y02304D02*
Y02275D01*
X04854Y02265*
X04884*
Y02304*
X04944Y02324D02*
X04904D01*
Y02294*
X04924*
X04904*
Y02265*
X03925Y0157D02*
X03885D01*
X03865Y01589*
X03885Y01609*
X03925*
X03895*
Y0157*
X03925Y01629D02*
X03865D01*
Y01659*
X03875Y01669*
X03895*
X03905Y01659*
Y01629*
Y01649D02*
X03925Y01669D01*
X03865Y01689D02*
X03925D01*
Y01719*
X03915Y01729*
X03875*
X03865Y01719*
Y01689*
Y01749D02*
X03915D01*
X03925Y01759*
Y01779*
X03915Y01789*
X03865*
Y01809D02*
Y01829D01*
Y01819*
X03925*
Y01809*
Y01829*
Y01859D02*
X03865D01*
X03925Y01899*
X03865*
Y01949D02*
Y01929D01*
X03875Y01919*
X03915*
X03925Y01929*
Y01949*
X03915Y01959*
X03875*
X03865Y01949*
X03925Y02039D02*
X03865D01*
X03925Y02079*
X03865*
X03925Y02099D02*
X03885D01*
X03865Y02119*
X03885Y02139*
X03925*
X03895*
Y02099*
X03925Y02159D02*
X03865D01*
X03925Y02199*
X03865*
Y02249D02*
Y02229D01*
X03875Y02219*
X03915*
X03925Y02229*
Y02249*
X03915Y02259*
X03875*
X03865Y02249*
X0292Y02779D02*
Y0273D01*
X0293Y0272*
X02949*
X02959Y0273*
Y02779*
X02979Y0272D02*
Y02759D01*
X02999Y02779*
X03019Y02759*
Y0272*
Y02749*
X02979*
X03039Y0272D02*
Y02779D01*
X03069*
X03079Y02769*
Y02749*
X03069Y02739*
X03039*
X03059D02*
X03079Y0272D01*
X03099Y02779D02*
X03139D01*
X03119*
Y0272*
X03267Y01166D02*
X03259Y01174D01*
X03242*
X03234Y01166*
Y01158*
X03242Y01149*
X03259*
X03267Y01141*
Y01133*
X03259Y01125*
X03242*
X03234Y01133*
X03317Y01174D02*
X03284D01*
Y01125*
X03317*
X03284Y01149D02*
X033D01*
X03334Y01125D02*
Y01174D01*
X03359*
X03367Y01166*
Y01149*
X03359Y01141*
X03334*
X0335D02*
X03367Y01125D01*
X03384D02*
X034D01*
X03392*
Y01174*
X03384Y01166*
X03459Y01125D02*
X03425D01*
X03459Y01158*
Y01166*
X0345Y01174*
X03434*
X03425Y01166*
X03275Y01292D02*
X03267Y013D01*
X0325*
X03242Y01292*
Y01284*
X0325Y01275*
X03267*
X03275Y01267*
Y01259*
X03267Y0125*
X0325*
X03242Y01259*
X03325Y013D02*
X03292D01*
Y0125*
X03325*
X03292Y01275D02*
X03309D01*
X03342Y0125D02*
Y013D01*
X03367*
X03375Y01292*
Y01275*
X03367Y01267*
X03342*
X03359D02*
X03375Y0125D01*
X03392D02*
X03409D01*
X034*
Y013*
X03392Y01292*
X03434Y0125D02*
X0345D01*
X03442*
Y013*
X03434Y01292*
X03267Y01418D02*
X03259Y01426D01*
X03242*
X03234Y01418*
Y0141*
X03242Y01401*
X03259*
X03267Y01393*
Y01385*
X03259Y01376*
X03242*
X03234Y01385*
X03317Y01426D02*
X03284D01*
Y01376*
X03317*
X03284Y01401D02*
X033D01*
X03334Y01376D02*
Y01426D01*
X03359*
X03367Y01418*
Y01401*
X03359Y01393*
X03334*
X0335D02*
X03367Y01376D01*
X03384D02*
X034D01*
X03392*
Y01426*
X03384Y01418*
X03425D02*
X03434Y01426D01*
X0345*
X03459Y01418*
Y01385*
X0345Y01376*
X03434*
X03425Y01385*
Y01418*
X03263Y01544D02*
X03254Y01552D01*
X03238*
X0323Y01544*
Y01536*
X03238Y01527*
X03254*
X03263Y01519*
Y01511*
X03254Y01502*
X03238*
X0323Y01511*
X03313Y01552D02*
X03279D01*
Y01502*
X03313*
X03279Y01527D02*
X03296D01*
X03329Y01502D02*
Y01552D01*
X03354*
X03363Y01544*
Y01527*
X03354Y01519*
X03329*
X03346D02*
X03363Y01502D01*
X03379Y01511D02*
X03388Y01502D01*
X03404*
X03413Y01511*
Y01544*
X03404Y01552*
X03388*
X03379Y01544*
Y01536*
X03388Y01527*
X03413*
X03263Y0167D02*
X03254Y01678D01*
X03238*
X0323Y0167*
Y01661*
X03238Y01653*
X03254*
X03263Y01645*
Y01636*
X03254Y01628*
X03238*
X0323Y01636*
X03313Y01678D02*
X03279D01*
Y01628*
X03313*
X03279Y01653D02*
X03296D01*
X03329Y01628D02*
Y01678D01*
X03354*
X03363Y0167*
Y01653*
X03354Y01645*
X03329*
X03346D02*
X03363Y01628D01*
X03379Y0167D02*
X03388Y01678D01*
X03404*
X03413Y0167*
Y01661*
X03404Y01653*
X03413Y01645*
Y01636*
X03404Y01628*
X03388*
X03379Y01636*
Y01645*
X03388Y01653*
X03379Y01661*
Y0167*
X03388Y01653D02*
X03404D01*
X03263Y01796D02*
X03254Y01804D01*
X03238*
X0323Y01796*
Y01787*
X03238Y01779*
X03254*
X03263Y01771*
Y01762*
X03254Y01754*
X03238*
X0323Y01762*
X03313Y01804D02*
X03279D01*
Y01754*
X03313*
X03279Y01779D02*
X03296D01*
X03329Y01754D02*
Y01804D01*
X03354*
X03363Y01796*
Y01779*
X03354Y01771*
X03329*
X03346D02*
X03363Y01754D01*
X03379Y01804D02*
X03413D01*
Y01796*
X03379Y01762*
Y01754*
X03263Y01922D02*
X03254Y0193D01*
X03238*
X0323Y01922*
Y01913*
X03238Y01905*
X03254*
X03263Y01897*
Y01888*
X03254Y0188*
X03238*
X0323Y01888*
X03313Y0193D02*
X03279D01*
Y0188*
X03313*
X03279Y01905D02*
X03296D01*
X03329Y0188D02*
Y0193D01*
X03354*
X03363Y01922*
Y01905*
X03354Y01897*
X03329*
X03346D02*
X03363Y0188D01*
X03413Y0193D02*
X03396Y01922D01*
X03379Y01905*
Y01888*
X03388Y0188*
X03404*
X03413Y01888*
Y01897*
X03404Y01905*
X03379*
X03263Y02048D02*
X03254Y02056D01*
X03238*
X0323Y02048*
Y02039*
X03238Y02031*
X03254*
X03263Y02023*
Y02014*
X03254Y02006*
X03238*
X0323Y02014*
X03313Y02056D02*
X03279D01*
Y02006*
X03313*
X03279Y02031D02*
X03296D01*
X03329Y02006D02*
Y02056D01*
X03354*
X03363Y02048*
Y02031*
X03354Y02023*
X03329*
X03346D02*
X03363Y02006D01*
X03413Y02056D02*
X03379D01*
Y02031*
X03396Y02039*
X03404*
X03413Y02031*
Y02014*
X03404Y02006*
X03388*
X03379Y02014*
X03263Y02173D02*
X03254Y02182D01*
X03238*
X0323Y02173*
Y02165*
X03238Y02157*
X03254*
X03263Y02148*
Y0214*
X03254Y02132*
X03238*
X0323Y0214*
X03313Y02182D02*
X03279D01*
Y02132*
X03313*
X03279Y02157D02*
X03296D01*
X03329Y02132D02*
Y02182D01*
X03354*
X03363Y02173*
Y02157*
X03354Y02148*
X03329*
X03346D02*
X03363Y02132D01*
X03404D02*
Y02182D01*
X03379Y02157*
X03413*
X03263Y02299D02*
X03254Y02308D01*
X03238*
X0323Y02299*
Y02291*
X03238Y02283*
X03254*
X03263Y02274*
Y02266*
X03254Y02258*
X03238*
X0323Y02266*
X03313Y02308D02*
X03279D01*
Y02258*
X03313*
X03279Y02283D02*
X03296D01*
X03329Y02258D02*
Y02308D01*
X03354*
X03363Y02299*
Y02283*
X03354Y02274*
X03329*
X03346D02*
X03363Y02258D01*
X03379Y02299D02*
X03388Y02308D01*
X03404*
X03413Y02299*
Y02291*
X03404Y02283*
X03396*
X03404*
X03413Y02274*
Y02266*
X03404Y02258*
X03388*
X03379Y02266*
X03263Y02425D02*
X03254Y02434D01*
X03238*
X0323Y02425*
Y02417*
X03238Y02409*
X03254*
X03263Y024*
Y02392*
X03254Y02384*
X03238*
X0323Y02392*
X03313Y02434D02*
X03279D01*
Y02384*
X03313*
X03279Y02409D02*
X03296D01*
X03329Y02384D02*
Y02434D01*
X03354*
X03363Y02425*
Y02409*
X03354Y024*
X03329*
X03346D02*
X03363Y02384D01*
X03413D02*
X03379D01*
X03413Y02417*
Y02425*
X03404Y02434*
X03388*
X03379Y02425*
X03271Y02551D02*
X03263Y02559D01*
X03246*
X03238Y02551*
Y02543*
X03246Y02534*
X03263*
X03271Y02526*
Y02518*
X03263Y0251*
X03246*
X03238Y02518*
X03321Y02559D02*
X03288D01*
Y0251*
X03321*
X03288Y02534D02*
X03304D01*
X03338Y0251D02*
Y02559D01*
X03363*
X03371Y02551*
Y02534*
X03363Y02526*
X03338*
X03354D02*
X03371Y0251D01*
X03388D02*
X03404D01*
X03396*
Y02559*
X03388Y02551*
X0308Y02935D02*
X0302D01*
Y02964*
X0303Y02974*
X0305*
X0306Y02964*
Y02935*
Y02954D02*
X0308Y02974D01*
X0303Y02994D02*
X0302Y03004D01*
Y03024*
X0303Y03034*
X0304*
X0306Y03014*
X0307D02*
X0308D01*
X0478Y02575D02*
Y02634D01*
X04809*
X04819Y02624*
Y02604*
X04809Y02594*
X0478*
X04839Y02634D02*
Y02575D01*
X04859Y02594*
X04879Y02575*
Y02634*
X04899Y02575D02*
Y02634D01*
X04929*
X04939Y02624*
Y02604*
X04929Y02594*
X04899*
X04919D02*
X04939Y02575D01*
X02871Y03507D02*
Y03567D01*
X02901*
X02911Y03557*
Y03537*
X02901Y03527*
X02871*
X02931Y03567D02*
Y03507D01*
X02951Y03527*
X02971Y03507*
Y03567*
X02991Y03507D02*
Y03567D01*
X03021*
X03031Y03557*
Y03537*
X03021Y03527*
X02991*
X03011D02*
X03031Y03507D01*
X04265Y03369D02*
Y03428D01*
X04284Y03408*
X04304Y03428*
Y03369*
X04324D02*
Y03428D01*
X04354*
X04364Y03418*
Y03398*
X04354Y03388*
X04324*
X04384Y03428D02*
Y03379D01*
X04394Y03369*
X04414*
X04424Y03379*
Y03428*
X04444Y03359D02*
X04484D01*
X04544Y03428D02*
X04524Y03418D01*
X04504Y03398*
Y03379*
X04514Y03369*
X04534*
X04544Y03379*
Y03388*
X04534Y03398*
X04504*
X04564Y03418D02*
X04574Y03428D01*
X04594*
X04604Y03418*
Y03379*
X04594Y03369*
X04574*
X04564Y03379*
Y03418*
X04664Y03428D02*
X04624D01*
Y03398*
X04644Y03408*
X04654*
X04664Y03398*
Y03379*
X04654Y03369*
X04634*
X04624Y03379*
X04684Y03418D02*
X04694Y03428D01*
X04714*
X04724Y03418*
Y03379*
X04714Y03369*
X04694*
X04684Y03379*
Y03418*
X0369Y03569D02*
Y0351D01*
Y03539*
X03729*
Y03569*
Y0351*
X03789Y03559D02*
X03779Y03569D01*
X03759*
X03749Y03559*
Y0352*
X03759Y0351*
X03779*
X03789Y0352*
X03849Y03559D02*
X03839Y03569D01*
X03819*
X03809Y03559*
Y03549*
X03819Y03539*
X03839*
X03849Y03529*
Y0352*
X03839Y0351*
X03819*
X03809Y0352*
X03869Y0351D02*
Y03569D01*
X03899*
X03909Y03559*
Y03539*
X03899Y03529*
X03869*
X03889D02*
X03909Y0351D01*
X03929Y03559D02*
X03939Y03569D01*
X03959*
X03969Y03559*
Y0352*
X03959Y0351*
X03939*
X03929Y0352*
Y03559*
X04019Y0351D02*
Y03569D01*
X03989Y03539*
X04029*
X03391Y02703D02*
Y02643D01*
Y02673*
X03431*
Y02703*
Y02643*
X03491D02*
X03451D01*
X03491Y02683*
Y02693*
X03481Y02703*
X03461*
X03451Y02693*
X04291Y02703D02*
Y02644D01*
Y02673*
X0433*
Y02703*
Y02644*
X0435D02*
X0437D01*
X0436*
Y02703*
X0435Y02693*
X04445Y02819D02*
X04471D01*
X04458Y02833D02*
Y02806D01*
X04511Y02839D02*
X04484D01*
Y02819*
X04498Y02826*
X04504*
X04511Y02819*
Y02806*
X04504Y028*
X04491*
X04484Y02806*
X03405Y031D02*
Y03139D01*
X03424Y03159*
X03444Y03139*
Y031*
Y03129*
X03405*
X03464Y031D02*
Y03159D01*
X03504Y031*
Y03159*
X03524Y031D02*
Y03139D01*
X03544Y03159*
X03564Y03139*
Y031*
Y03129*
X03524*
X03584Y03159D02*
Y031D01*
X03624*
X03674Y03159D02*
X03654D01*
X03644Y03149*
Y0311*
X03654Y031*
X03674*
X03684Y0311*
Y03149*
X03674Y03159*
X03744Y03149D02*
X03734Y03159D01*
X03714*
X03704Y03149*
Y0311*
X03714Y031*
X03734*
X03744Y0311*
Y03129*
X03724*
X0501Y03294D02*
X0502Y03304D01*
X05039*
X05049Y03294*
Y03284*
X05029Y03264*
Y03255D02*
Y03245D01*
X05005Y01929D02*
X05031D01*
Y01923*
X05005Y01896*
Y0189*
X05044Y01923D02*
X05051Y01929D01*
X05064*
X05071Y01923*
Y01916*
X05064Y01909*
X05071Y01903*
Y01896*
X05064Y0189*
X05051*
X05044Y01896*
Y01903*
X05051Y01909*
X05044Y01916*
Y01923*
X05051Y01909D02*
X05064D01*
X05084Y01923D02*
X05091Y01929D01*
X05104*
X05111Y01923*
Y01896*
X05104Y0189*
X05091*
X05084Y01896*
Y01923*
X05151Y01929D02*
X05124D01*
Y01909*
X05138Y01916*
X05144*
X05151Y01909*
Y01896*
X05144Y0189*
X05131*
X05124Y01896*
X05178Y0189D02*
X05164Y01903D01*
Y01916*
X05178Y01929*
X05198Y0189D02*
Y01929D01*
X05224Y0189*
Y01929*
X05238Y0189D02*
Y01916D01*
X05251Y01929*
X05264Y01916*
Y0189*
Y01909*
X05238*
X05278Y0189D02*
Y01929D01*
X05304Y0189*
Y01929*
X05338D02*
X05324D01*
X05318Y01923*
Y01896*
X05324Y0189*
X05338*
X05344Y01896*
Y01923*
X05338Y01929*
X05358Y0189D02*
X05371Y01903D01*
Y01916*
X05358Y01929*
X0502Y01629D02*
X05059D01*
Y01619*
X0502Y0158*
Y0157*
X05079Y01619D02*
X05089Y01629D01*
X05109*
X05119Y01619*
Y01609*
X05109Y01599*
X05119Y01589*
Y0158*
X05109Y0157*
X05089*
X05079Y0158*
Y01589*
X05089Y01599*
X05079Y01609*
Y01619*
X05089Y01599D02*
X05109D01*
X05139Y01619D02*
X05149Y01629D01*
X05169*
X05179Y01619*
Y0158*
X05169Y0157*
X05149*
X05139Y0158*
Y01619*
X05239Y01629D02*
X05199D01*
Y01599*
X05219Y01609*
X05229*
X05239Y01599*
Y0158*
X05229Y0157*
X05209*
X05199Y0158*
X05279Y0157D02*
X05259Y01589D01*
Y01609*
X05279Y01629*
X05349D02*
X05309D01*
Y01599*
X05329Y01609*
X05339*
X05349Y01599*
Y0158*
X05339Y0157*
X05319*
X05309Y0158*
X05369Y0157D02*
X05389Y01589D01*
Y01609*
X05369Y01629*
X05015Y01329D02*
X05054D01*
Y01319*
X05015Y0128*
Y0127*
X05074Y01319D02*
X05084Y01329D01*
X05104*
X05114Y01319*
Y01309*
X05104Y01299*
X05114Y01289*
Y0128*
X05104Y0127*
X05084*
X05074Y0128*
Y01289*
X05084Y01299*
X05074Y01309*
Y01319*
X05084Y01299D02*
X05104D01*
X05134Y01319D02*
X05144Y01329D01*
X05164*
X05174Y01319*
Y0128*
X05164Y0127*
X05144*
X05134Y0128*
Y01319*
X05234Y01329D02*
X05194D01*
Y01299*
X05214Y01309*
X05224*
X05234Y01299*
Y0128*
X05224Y0127*
X05204*
X05194Y0128*
X05274Y0127D02*
X05254Y01289D01*
Y01309*
X05274Y01329*
X05334Y0127D02*
Y01329D01*
X05304Y01299*
X05344*
X05364Y0127D02*
X05384Y01289D01*
Y01309*
X05364Y01329*
X0449Y01319D02*
X04529D01*
Y01309*
X0449Y0127*
Y0126*
X04549Y01309D02*
X04559Y01319D01*
X04579*
X04589Y01309*
Y01299*
X04579Y01289*
X04589Y01279*
Y0127*
X04579Y0126*
X04559*
X04549Y0127*
Y01279*
X04559Y01289*
X04549Y01299*
Y01309*
X04559Y01289D02*
X04579D01*
X04609Y01309D02*
X04619Y01319D01*
X04639*
X04649Y01309*
Y0127*
X04639Y0126*
X04619*
X04609Y0127*
Y01309*
X04709Y01319D02*
X04669D01*
Y01289*
X04689Y01299*
X04699*
X04709Y01289*
Y0127*
X04699Y0126*
X04679*
X04669Y0127*
X04749Y0126D02*
X04729Y01279D01*
Y01299*
X04749Y01319*
X04779Y01309D02*
X04789Y01319D01*
X04809*
X04819Y01309*
Y01299*
X04809Y01289*
X04799*
X04809*
X04819Y01279*
Y0127*
X04809Y0126*
X04789*
X04779Y0127*
X04839Y0126D02*
X04859Y01279D01*
Y01299*
X04839Y01319*
X04495Y01629D02*
X04534D01*
Y01619*
X04495Y0158*
Y0157*
X04554Y01619D02*
X04564Y01629D01*
X04584*
X04594Y01619*
Y01609*
X04584Y01599*
X04594Y01589*
Y0158*
X04584Y0157*
X04564*
X04554Y0158*
Y01589*
X04564Y01599*
X04554Y01609*
Y01619*
X04564Y01599D02*
X04584D01*
X04614Y01619D02*
X04624Y01629D01*
X04644*
X04654Y01619*
Y0158*
X04644Y0157*
X04624*
X04614Y0158*
Y01619*
X04714Y01629D02*
X04674D01*
Y01599*
X04694Y01609*
X04704*
X04714Y01599*
Y0158*
X04704Y0157*
X04684*
X04674Y0158*
X04754Y0157D02*
X04734Y01589D01*
Y01609*
X04754Y01629*
X04824Y0157D02*
X04784D01*
X04824Y01609*
Y01619*
X04814Y01629*
X04794*
X04784Y01619*
X04844Y0157D02*
X04864Y01589D01*
Y01609*
X04844Y01629*
X045Y01944D02*
X04539D01*
Y01934*
X045Y01895*
Y01885*
X04559Y01934D02*
X04569Y01944D01*
X04589*
X04599Y01934*
Y01924*
X04589Y01914*
X04599Y01904*
Y01895*
X04589Y01885*
X04569*
X04559Y01895*
Y01904*
X04569Y01914*
X04559Y01924*
Y01934*
X04569Y01914D02*
X04589D01*
X04619Y01934D02*
X04629Y01944D01*
X04649*
X04659Y01934*
Y01895*
X04649Y01885*
X04629*
X04619Y01895*
Y01934*
X04719Y01944D02*
X04679D01*
Y01914*
X04699Y01924*
X04709*
X04719Y01914*
Y01895*
X04709Y01885*
X04689*
X04679Y01895*
X04759Y01885D02*
X04739Y01904D01*
Y01924*
X04759Y01944*
X04789Y01885D02*
X04809D01*
X04799*
Y01944*
X04789Y01934*
X04839Y01885D02*
X04859Y01904D01*
Y01924*
X04839Y01944*
X05104Y0232D02*
X05114Y0233D01*
X05133*
X05143Y0232*
Y02281*
X05133Y02271*
X05114*
X05104Y02281*
Y0232*
X05163Y02271D02*
Y02281D01*
X05173*
Y02271*
X05163*
X05213D02*
X05233D01*
X05223*
Y0233*
X05213Y0232*
X05263Y0231D02*
Y02281D01*
X05273Y02271*
X05303*
Y0231*
X05363Y0233D02*
X05323D01*
Y023*
X05343*
X05323*
Y02271*
X05024Y03449D02*
X05005D01*
X04995Y03439*
Y034*
X05005Y0339*
X05024*
X05034Y034*
Y03439*
X05024Y03449*
X05094D02*
X05054D01*
Y03419*
X05074*
X05054*
Y0339*
X05154Y03449D02*
X05114D01*
Y03419*
X05134*
X05114*
Y0339*
X04031Y03156D02*
X04025Y03149D01*
Y03136*
X04031Y0313*
X04058*
X04065Y03136*
Y03149*
X04058Y03156*
X04045*
Y03143*
X04065Y03169D02*
X04025D01*
X04065Y03196*
X04025*
Y03209D02*
X04065D01*
Y03229*
X04058Y03236*
X04031*
X04025Y03229*
Y03209*
X0392Y03121D02*
Y03095D01*
X0396*
Y03121*
X0394Y03095D02*
Y03108D01*
X03926Y03161D02*
X0392Y03154D01*
Y03141*
X03926Y03134*
X03953*
X0396Y03141*
Y03154*
X03953Y03161*
X0392Y03174D02*
X0396D01*
X0394*
Y03201*
X0392*
X0396*
X0392Y03234D02*
Y03221D01*
X03926Y03214*
X03953*
X0396Y03221*
Y03234*
X03953Y03241*
X03926*
X0392Y03234*
X0382Y03095D02*
Y03121D01*
Y03108*
X0386*
Y03134D02*
X0382D01*
Y03154*
X03826Y03161*
X0384*
X03846Y03154*
Y03134*
Y03148D02*
X0386Y03161D01*
X0382Y03174D02*
Y03188D01*
Y03181*
X0386*
Y03174*
Y03188*
X03826Y03234D02*
X0382Y03228D01*
Y03214*
X03826Y03208*
X03853*
X0386Y03214*
Y03228*
X03853Y03234*
X0384*
Y03221*
X0367Y03234D02*
Y03208D01*
X03683Y03195*
X03696Y03208*
Y03234*
X03736Y03228D02*
X03729Y03234D01*
X03716*
X03709Y03228*
Y03201*
X03716Y03195*
X03729*
X03736Y03201*
X03776Y03228D02*
X03769Y03234D01*
X03756*
X03749Y03228*
Y03201*
X03756Y03195*
X03769*
X03776Y03201*
X043Y02829D02*
Y02803D01*
X04313Y0279*
X04326Y02803*
Y02829*
X04366Y02823D02*
X04359Y02829D01*
X04346*
X04339Y02823*
Y02796*
X04346Y0279*
X04359*
X04366Y02796*
X04406Y02823D02*
X04399Y02829D01*
X04386*
X04379Y02823*
Y02796*
X04386Y0279*
X04399*
X04406Y02796*
X03456Y02823D02*
X03449Y02829D01*
X03436*
X0343Y02823*
Y02796*
X03436Y0279*
X03449*
X03456Y02796*
Y02809*
X03443*
X04225Y0279D02*
Y02816D01*
X04238Y02829*
X04251Y02816*
Y0279*
Y02809*
X04225*
X04264Y02823D02*
X04271Y02829D01*
X04284*
X04291Y02823*
Y02796*
X04284Y0279*
X04271*
X04264Y02796*
Y02823*
X0413Y0279D02*
Y02816D01*
X04143Y02829*
X04156Y02816*
Y0279*
Y02809*
X0413*
X04169Y0279D02*
X04183D01*
X04176*
Y02829*
X04169Y02823*
X04025Y0279D02*
Y02816D01*
X04038Y02829*
X04051Y02816*
Y0279*
Y02809*
X04025*
X04091Y0279D02*
X04064D01*
X04091Y02816*
Y02823*
X04084Y02829*
X04071*
X04064Y02823*
X03925Y0279D02*
Y02816D01*
X03938Y02829*
X03951Y02816*
Y0279*
Y02809*
X03925*
X03964Y02823D02*
X03971Y02829D01*
X03984*
X03991Y02823*
Y02816*
X03984Y02809*
X03978*
X03984*
X03991Y02803*
Y02796*
X03984Y0279*
X03971*
X03964Y02796*
X0382Y0279D02*
Y02816D01*
X03833Y02829*
X03846Y02816*
Y0279*
Y02809*
X0382*
X03879Y0279D02*
Y02829D01*
X03859Y02809*
X03886*
X0372Y0279D02*
Y02816D01*
X03733Y02829*
X03746Y02816*
Y0279*
Y02809*
X0372*
X03786Y02829D02*
X03759D01*
Y02809*
X03773Y02816*
X03779*
X03786Y02809*
Y02796*
X03779Y0279*
X03766*
X03759Y02796*
X0362Y0279D02*
Y02816D01*
X03633Y02829*
X03646Y02816*
Y0279*
Y02809*
X0362*
X03686Y02829D02*
X03673Y02823D01*
X03659Y02809*
Y02796*
X03666Y0279*
X03679*
X03686Y02796*
Y02803*
X03679Y02809*
X03659*
X03515Y0279D02*
Y02816D01*
X03528Y02829*
X03541Y02816*
Y0279*
Y02809*
X03515*
X03554Y02829D02*
X03581D01*
Y02823*
X03554Y02796*
Y0279*
X04879Y02479D02*
X04869Y02489D01*
X0485*
X0484Y02479*
Y0244*
X0485Y0243*
X04869*
X04879Y0244*
Y02459*
X04859*
X04899Y0243D02*
Y02489D01*
X04939Y0243*
Y02489*
X04959D02*
Y0243D01*
X04989*
X04999Y0244*
Y02479*
X04989Y02489*
X04959*
G54D31*
X03147Y03224D02*
X03138D01*
Y03232*
X03147*
Y03224*
X04309Y032D02*
X04285Y03175D01*
X04309Y0315*
X04334Y03175D02*
X04368D01*
G54D32*
X02865Y0336D02*
X02891D01*
X02878Y03373D02*
Y03346D01*
G54D33*
X04728Y02139D03*
X05127Y02135D03*
X04847D03*
G54D34*
X04732Y0214D03*
X05122Y02135D03*
X04843D03*
G54D35*
X04737Y0214D03*
X05117Y02135D03*
X04838D03*
G54D36*
X04748Y0218D03*
X05106Y02094D03*
X04827D03*
G54D37*
X04752Y02168D03*
X05103Y02106D03*
X04823D03*
G54D38*
X04742Y02139D03*
X05113Y02135D03*
X04834D03*
G54D39*
X04746Y02139D03*
X05109Y02135D03*
X0483D03*
G54D40*
X0475Y02139D03*
X05105Y02135D03*
X04826D03*
G54D41*
X04754Y02139D03*
X05101Y02135D03*
X04822D03*
M02*