%FSTAX23Y23*%
%MOIN*%
%SFA1B1*%

%IPPOS*%
%ADD30C,0.010000*%
%LNqudruped_nano-1*%
%LPD*%
G54D30*
X04105Y02016D02*
Y02056D01*
X04115Y02066*
X04135*
X04145Y02056*
Y02016*
X04135Y02006*
X04115*
X04125Y02026D02*
X04105Y02006D01*
X04115D02*
X04105Y02016D01*
X04085Y02066D02*
Y02016D01*
X04075Y02006*
X04055*
X04045Y02016*
Y02066*
X04025Y02006D02*
Y02046D01*
X04005Y02066*
X03985Y02046*
Y02006*
Y02036*
X04025*
X03965Y02066D02*
Y02006D01*
X03935*
X03925Y02016*
Y02056*
X03935Y02066*
X03965*
X03905Y02006D02*
Y02066D01*
X03875*
X03865Y02056*
Y02036*
X03875Y02026*
X03905*
X03885D02*
X03865Y02006D01*
X03845Y02066D02*
Y02016D01*
X03835Y02006*
X03815*
X03805Y02016*
Y02066*
X03785Y02006D02*
Y02066D01*
X03755*
X03745Y02056*
Y02036*
X03755Y02026*
X03785*
X03685Y02066D02*
X03725D01*
Y02006*
X03685*
X03725Y02036D02*
X03705D01*
X03665Y02066D02*
Y02006D01*
X03635*
X03625Y02016*
Y02056*
X03635Y02066*
X03665*
X04025Y0191D02*
Y0197D01*
X03995*
X03985Y0196*
Y0194*
X03995Y0193*
X04025*
X04005D02*
X03985Y0191D01*
X03935Y0197D02*
X03955D01*
X03965Y0196*
Y0192*
X03955Y0191*
X03935*
X03925Y0192*
Y0196*
X03935Y0197*
X03905D02*
Y0191D01*
X03875*
X03865Y0192*
Y0193*
X03875Y0194*
X03905*
X03875*
X03865Y0195*
Y0196*
X03875Y0197*
X03905*
X03815D02*
X03835D01*
X03845Y0196*
Y0192*
X03835Y0191*
X03815*
X03805Y0192*
Y0196*
X03815Y0197*
X03785D02*
X03745D01*
X03765*
Y0191*
X04025Y01815D02*
Y01874D01*
X03995*
X03985Y01864*
Y01844*
X03995Y01834*
X04025*
X03925Y01864D02*
X03935Y01874D01*
X03955*
X03965Y01864*
Y01825*
X03955Y01815*
X03935*
X03925Y01825*
X03905Y01874D02*
Y01815D01*
X03875*
X03865Y01825*
Y01834*
X03875Y01844*
X03905*
X03875*
X03865Y01854*
Y01864*
X03875Y01874*
X03905*
X0402Y02105D02*
Y02154D01*
X04003Y02138*
X03986Y02154*
Y02105*
X0397Y02154D02*
X03953D01*
X03961*
Y02105*
X0397*
X03953*
X03928Y02154D02*
Y02105D01*
X03895*
X03845Y02154D02*
X03878D01*
Y02105*
X03845*
X03878Y02129D02*
X03861D01*
X03795Y02146D02*
X03803Y02154D01*
X0382*
X03828Y02146*
Y02138*
X0382Y02129*
X03803*
X03795Y02121*
Y02113*
X03803Y02105*
X0382*
X03828Y02113*
X0508Y03564D02*
X0504D01*
X0506*
Y03505*
X0502Y03564D02*
Y03505D01*
Y03534*
X0501Y03544*
X0499*
X0498Y03534*
Y03505*
X0496D02*
X0494D01*
X0495*
Y03544*
X0496*
X0491Y03505D02*
X0488D01*
X0487Y03515*
X0488Y03524*
X049*
X0491Y03534*
X049Y03544*
X0487*
X0479Y03505D02*
Y03564D01*
X0476*
X0475Y03554*
Y03534*
X0476Y03524*
X0479*
X0469Y03554D02*
X047Y03564D01*
X0472*
X0473Y03554*
Y03515*
X0472Y03505*
X047*
X0469Y03515*
X0467Y03564D02*
Y03505D01*
X0464*
X0463Y03515*
Y03524*
X0464Y03534*
X0467*
X0464*
X0463Y03544*
Y03554*
X0464Y03564*
X0467*
X0455Y03505D02*
X0453D01*
X0454*
Y03544*
X0455*
X045Y03505D02*
X0447D01*
X0446Y03515*
X0447Y03524*
X0449*
X045Y03534*
X0449Y03544*
X0446*
X0434Y03564D02*
Y03505D01*
X0437*
X0438Y03515*
Y03534*
X0437Y03544*
X0434*
X0429Y03505D02*
X0431D01*
X0432Y03515*
Y03534*
X0431Y03544*
X0429*
X0428Y03534*
Y03524*
X0432*
X0426Y03505D02*
X0423D01*
X0422Y03515*
X0423Y03524*
X0425*
X0426Y03534*
X0425Y03544*
X0422*
X042Y03505D02*
X0418D01*
X0419*
Y03544*
X042*
X0413Y03485D02*
X0412D01*
X0411Y03495*
Y03544*
X0414*
X0415Y03534*
Y03515*
X0414Y03505*
X0411*
X0409D02*
Y03544D01*
X0406*
X0405Y03534*
Y03505*
X04D02*
X0402D01*
X0403Y03515*
Y03534*
X0402Y03544*
X04*
X0399Y03534*
Y03524*
X0403*
X0393Y03564D02*
Y03505D01*
X0396*
X0397Y03515*
Y03534*
X0396Y03544*
X0393*
X0385Y03564D02*
Y03505D01*
X0382*
X0381Y03515*
Y03524*
Y03534*
X0382Y03544*
X0385*
X0379D02*
Y03515D01*
X0378Y03505*
X0375*
Y03495*
X0376Y03485*
X0377*
X0375Y03505D02*
Y03544D01*
X0364Y03524D02*
Y03534D01*
X0365*
Y03524*
X0364*
X0363Y03534*
Y03554*
X0364Y03564*
X0366*
X0367Y03554*
Y03515*
X0366Y03505*
X0363*
X0361Y03495D02*
X0357D01*
X0355Y03544D02*
Y03505D01*
Y03524*
X0354Y03534*
X0353Y03544*
X0352*
X0348Y03505D02*
X0346D01*
X0345Y03515*
Y03534*
X0346Y03544*
X0348*
X0349Y03534*
Y03515*
X0348Y03505*
X0343D02*
Y03515D01*
X0342*
Y03505*
X0343*
X0338Y03564D02*
Y03505D01*
X0335*
X0334Y03515*
Y03524*
Y03534*
X0335Y03544*
X0338*
X0331Y03505D02*
X0329D01*
X0328Y03515*
Y03534*
X0329Y03544*
X0331*
X0332Y03534*
Y03515*
X0331Y03505*
X0326Y03544D02*
X0322Y03505D01*
X0324Y03524*
X0322Y03544*
X0326Y03505*
X032Y03495D02*
X0316D01*
M02*