%FSTAX23Y23*%
%MOIN*%
%SFA1B1*%

%IPPOS*%
%ADD9500C,0.020000*%
%ADD9501C,0.027560*%
%ADD9502C,0.039370*%
%ADD9503C,0.043310*%
%ADD9504C,0.055120*%
%ADD9505C,0.070000*%
%LNqudruped_nano-1*%
%LPD*%
G54D9500*
X03315Y02495D03*
X0331Y02725D03*
X03385Y02775D03*
G54D9501*
X04695Y0214D03*
X04881Y02135D03*
X0496D03*
X0516D03*
X05239D03*
X04616Y0214D03*
G54D9502*
X0471Y0296D03*
X0481D03*
X0458D03*
X0448D03*
X04345Y0298D03*
X04245D03*
X04145D03*
X04045D03*
X03945D03*
X03845D03*
X03745D03*
X03645D03*
X03545D03*
X03445D03*
X03065Y0336D03*
X02965D03*
X03735Y0335D03*
X03835D03*
X03935D03*
X04035D03*
G54D9503*
X0295Y0115D03*
X0305D03*
Y01275D03*
X0295D03*
Y014D03*
X0305D03*
Y01526D03*
X0295D03*
X0315D03*
Y014D03*
Y01275D03*
Y0115D03*
X03435Y0116D03*
Y0126D03*
Y0136D03*
Y0146D03*
Y0156D03*
X03585D03*
Y0146D03*
Y0136D03*
Y0126D03*
Y0116D03*
X04185D03*
Y0126D03*
Y0136D03*
Y0146D03*
Y0156D03*
X04335D03*
Y0146D03*
Y0136D03*
Y0126D03*
Y0116D03*
X04575Y01165D03*
X04675D03*
Y0148D03*
X04575D03*
X04775D03*
Y01165D03*
X05095Y0118D03*
X05195D03*
X05295D03*
Y0148D03*
X05195D03*
X05095D03*
Y0179D03*
X05195D03*
X05295D03*
X04775Y01795D03*
X04675D03*
X04575D03*
X04335Y0176D03*
Y0166D03*
X04185D03*
Y0176D03*
Y0186D03*
Y0196D03*
Y0206D03*
Y0216D03*
Y0226D03*
Y0236D03*
Y0246D03*
Y0256D03*
X04335D03*
Y0246D03*
Y0236D03*
Y0226D03*
Y0216D03*
Y0206D03*
Y0196D03*
Y0186D03*
X03585D03*
Y0196D03*
Y0206D03*
Y0216D03*
Y0226D03*
Y0236D03*
Y0246D03*
Y0256D03*
X03435D03*
Y0246D03*
Y0236D03*
Y0226D03*
Y0216D03*
Y0206D03*
Y0196D03*
Y0186D03*
Y0176D03*
Y0166D03*
X03585D03*
Y0176D03*
X0315Y01777D03*
Y01651D03*
Y01902D03*
Y02028D03*
Y02153D03*
Y02279D03*
Y02404D03*
Y0253D03*
X0321Y02755D03*
Y02855D03*
Y02955D03*
Y03055D03*
X0305Y0253D03*
X0295D03*
Y02404D03*
X0305D03*
Y02279D03*
X0295D03*
Y02153D03*
X0305D03*
Y02028D03*
X0295D03*
Y01902D03*
X0305D03*
Y01777D03*
X0295D03*
Y01651D03*
X0305D03*
X0321Y03155D03*
Y03255D03*
X04315Y03275D03*
X04415D03*
X04515D03*
X04615D03*
X04715D03*
X04815D03*
X0528Y03235D03*
Y0336D03*
Y03485D03*
G54D9504*
X0509Y02462D03*
Y026D03*
G54D9505*
X0358Y0107D03*
X0419D03*
Y0265D03*
X0358D03*
M02*